<svg width="198" height="40" viewBox="0 0 198 40" fill="none" xmlns="http://www.w3.org/2000/svg">
<rect width="197.597" height="40" rx="8" fill="white"/>
<path d="M15.6005 21.7364C15.4017 21.7364 15.2312 21.8074 15.0892 21.9494C14.9614 22.0914 14.8975 22.2619 14.8975 22.4607V24.2077C14.8975 24.4066 14.9614 24.577 15.0892 24.719C15.2312 24.8469 15.4017 24.9108 15.6005 24.9108H21.502C21.7577 24.9108 21.9707 25.0031 22.1411 25.1877C22.3258 25.3582 22.4181 25.5641 22.4181 25.8056V26.9134C22.4181 27.1549 22.3258 27.368 22.1411 27.5526C21.9707 27.723 21.7577 27.8083 21.502 27.8083H12.8948C12.6534 27.8083 12.4403 27.723 12.2557 27.5526C12.0852 27.368 12 27.1549 12 26.9134V13.0866C12 12.8451 12.0852 12.6391 12.2557 12.4687C12.4403 12.2841 12.6534 12.1917 12.8948 12.1917H21.502C21.7577 12.1917 21.9707 12.2841 22.1411 12.4687C22.3258 12.6391 22.4181 12.8451 22.4181 13.0866V14.1944C22.4181 14.4359 22.3258 14.6489 22.1411 14.8336C21.9707 15.004 21.7577 15.0892 21.502 15.0892H15.6005C15.4017 15.0892 15.2312 15.1602 15.0892 15.3023C14.9614 15.4301 14.8975 15.5934 14.8975 15.7923V18.1571C14.8975 18.356 14.9614 18.5264 15.0892 18.6684C15.2312 18.7963 15.4017 18.8602 15.6005 18.8602H20.6711C20.9126 18.8602 21.1185 18.9525 21.2889 19.1372C21.4736 19.3076 21.5659 19.5135 21.5659 19.755V20.8415C21.5659 21.0972 21.4736 21.3103 21.2889 21.4807C21.1185 21.6511 20.9126 21.7364 20.6711 21.7364H15.6005Z" fill="#1C2047"/>
<path d="M36.125 26.9134C36.125 27.1549 36.0327 27.368 35.848 27.5526C35.6776 27.723 35.4716 27.8083 35.2302 27.8083H34.5484C34.2502 27.8083 34.0229 27.7585 33.8667 27.6591C33.7104 27.5455 33.5968 27.4319 33.5258 27.3182L29.7122 20.5859C29.6128 20.4296 29.4708 20.3515 29.2861 20.3515C29.1299 20.3515 29.0021 20.4012 28.9026 20.5007C28.8174 20.6001 28.7748 20.7208 28.7748 20.8628V26.9134C28.7748 27.1549 28.6825 27.368 28.4978 27.5526C28.3274 27.723 28.1143 27.8083 27.8587 27.8083H26.7721C26.5307 27.8083 26.3176 27.723 26.133 27.5526C25.9625 27.368 25.8773 27.1549 25.8773 26.9134V13.0866C25.8773 12.8451 25.9625 12.6391 26.133 12.4687C26.3176 12.2841 26.5307 12.1917 26.7721 12.1917H27.4965C27.7948 12.1917 28.0149 12.2486 28.157 12.3622C28.3132 12.4616 28.4268 12.5681 28.4978 12.6818L32.2688 19.3715C32.3682 19.5419 32.5174 19.6272 32.7162 19.6272C32.8724 19.6272 32.9932 19.5775 33.0784 19.478C33.1778 19.3786 33.2275 19.2579 33.2275 19.1158V13.0866C33.2275 12.8451 33.3127 12.6391 33.4832 12.4687C33.6678 12.2841 33.888 12.1917 34.1436 12.1917H35.2302C35.4716 12.1917 35.6776 12.2841 35.848 12.4687C36.0327 12.6391 36.125 12.8451 36.125 13.0866V26.9134Z" fill="#1C2047"/>
<path d="M48.7548 26.7004C48.0305 27.2685 47.2067 27.652 46.2835 27.8509C45.4597 28.0355 44.6359 28.0426 43.8121 27.8722C42.9883 27.7159 42.2355 27.4035 41.5538 26.9348C40.9288 26.5087 40.4246 25.9973 40.0411 25.4008C39.9417 25.2446 39.8494 25.0883 39.7641 24.9321C39.6931 24.7617 39.6221 24.5912 39.5511 24.4208C39.5227 24.3356 39.4943 24.2503 39.4659 24.1651C39.4375 24.0799 39.4091 23.9947 39.3807 23.9095C39.3664 23.8526 39.3594 23.7816 39.3594 23.6964C39.3594 23.597 39.3736 23.526 39.402 23.4834C39.473 23.3271 39.5795 23.2064 39.7215 23.1212C39.8636 23.036 40.0127 22.9862 40.1689 22.972L41.5325 22.9507C41.6461 22.9507 41.7597 22.9578 41.8733 22.972C42.0012 22.9862 42.1219 23.0217 42.2355 23.0786C42.3349 23.1212 42.4131 23.1851 42.4699 23.2703C42.5125 23.3129 42.548 23.3839 42.5764 23.4834C42.6474 23.668 42.7326 23.8313 42.8321 23.9734C42.9883 24.2148 43.1942 24.4279 43.4499 24.6125C43.7056 24.783 43.9825 24.9108 44.2808 24.996C44.5649 25.067 44.8631 25.0954 45.1756 25.0812C45.4881 25.067 45.7863 25.0031 46.0704 24.8895C46.255 24.8043 46.4255 24.7048 46.5817 24.5912C46.7522 24.4634 46.8942 24.3213 47.0078 24.1651C47.1925 23.8953 47.2848 23.597 47.2848 23.2703C47.2848 22.8868 47.1641 22.5459 46.9226 22.2477C46.6811 21.9494 46.3758 21.7435 46.0065 21.6298C45.6514 21.5304 45.2821 21.4736 44.8986 21.4594C44.5293 21.431 44.0251 21.36 43.386 21.2463C42.8321 21.1611 42.3136 20.9836 41.8307 20.7137C41.3478 20.4439 40.9288 20.1172 40.5737 19.7337C40.2187 19.336 39.9417 18.8886 39.7428 18.3915C39.544 17.8802 39.4446 17.3475 39.4446 16.7936C39.4588 16.1971 39.5653 15.6787 39.7641 15.2383C39.963 14.7838 40.1973 14.3933 40.4672 14.0666C40.4956 14.0382 40.5382 13.9814 40.595 13.8961C41.1348 13.3138 41.7597 12.8664 42.4699 12.5539C43.0806 12.2557 43.7411 12.0852 44.4512 12.0426C44.5649 12.0284 44.6714 12.0213 44.7708 12.0213C44.8844 12.0071 44.991 12 45.0904 12C45.204 12 45.3176 12.0071 45.4313 12.0213C46.0704 12.0639 46.6953 12.2059 47.3061 12.4474C47.5049 12.5326 47.6967 12.6249 47.8813 12.7244C48.0802 12.8238 48.2719 12.9374 48.4566 13.0652C49.0815 13.4913 49.5857 14.0098 49.9692 14.6205C50.1823 14.9472 50.3456 15.2668 50.4592 15.5792C50.4876 15.6644 50.516 15.7497 50.5444 15.8349C50.5728 15.9201 50.6012 16.0053 50.6297 16.0905C50.6439 16.1474 50.651 16.2184 50.651 16.3036C50.651 16.3604 50.6368 16.4314 50.6083 16.5166C50.5373 16.6729 50.4308 16.7936 50.2888 16.8788C50.1467 16.964 49.9905 17.0138 49.8201 17.028L48.4779 17.0493C48.35 17.0493 48.2293 17.0493 48.1157 17.0493C48.002 17.0351 47.8884 16.9925 47.7748 16.9214C47.6754 16.8788 47.5973 16.8149 47.5404 16.7297C47.4978 16.6871 47.4623 16.6161 47.4339 16.5166C47.3629 16.332 47.2777 16.1687 47.1783 16.0266C46.8232 15.5153 46.3403 15.1744 45.7295 15.004C45.4455 14.933 45.1472 14.9046 44.8347 14.9188C44.5222 14.933 44.224 14.9969 43.9399 15.1105C43.7553 15.1957 43.5777 15.3023 43.4073 15.4301C43.251 15.5437 43.1161 15.6787 43.0025 15.8349C42.8178 16.0763 42.7255 16.3746 42.7255 16.7297C42.7255 17.1274 42.8392 17.4754 43.0664 17.7736C43.3079 18.0577 43.6132 18.2565 43.9825 18.3702C44.3944 18.4838 44.8063 18.5619 45.2182 18.6045C45.6443 18.6329 46.0633 18.6755 46.4752 18.7324C46.5036 18.7324 46.5249 18.7395 46.5391 18.7537C46.5675 18.7537 46.5959 18.7537 46.6243 18.7537C47.1783 18.8389 47.6967 19.0164 48.1796 19.2863C48.6625 19.5561 49.0815 19.8899 49.4366 20.2876C49.7917 20.6711 50.0686 21.1185 50.2675 21.6298C50.4663 22.1269 50.5657 22.6596 50.5657 23.2277C50.5799 23.9095 50.4166 24.5415 50.0757 25.1238C49.7348 25.7062 49.2945 26.2317 48.7548 26.7004Z" fill="#1C2047"/>
<path d="M58.334 12.0213C59.0726 12.0213 59.7615 12.1633 60.4006 12.4474C61.054 12.7173 61.6221 13.0937 62.105 13.5766C62.5879 14.0595 62.9643 14.6276 63.2342 15.281C63.5182 15.9201 63.6603 16.609 63.6603 17.3475V22.6738C63.6603 23.4123 63.5182 24.1083 63.2342 24.7617C62.9643 25.4008 62.5879 25.9618 62.105 26.4447C61.6221 26.9277 61.054 27.3111 60.4006 27.5952C59.7615 27.8651 59.0726 28 58.334 28C57.5955 28 56.8995 27.8651 56.2462 27.5952C55.607 27.3111 55.046 26.9277 54.5631 26.4447C54.0802 25.9618 53.6967 25.4008 53.4126 24.7617C53.1427 24.1083 53.0078 23.4123 53.0078 22.6738V17.3475C53.0078 16.609 53.1427 15.9201 53.4126 15.281C53.6967 14.6276 54.0802 14.0595 54.5631 13.5766C55.046 13.0937 55.607 12.7173 56.2462 12.4474C56.8995 12.1633 57.5955 12.0213 58.334 12.0213ZM60.6989 17.2836C60.6989 16.9569 60.635 16.6516 60.5072 16.3675C60.3793 16.0692 60.2089 15.8136 59.9958 15.6005C59.7828 15.3875 59.5342 15.217 59.2502 15.0892C58.9661 14.9614 58.6607 14.8975 58.334 14.8975C58.0074 14.8975 57.702 14.9614 57.4179 15.0892C57.1339 15.217 56.8853 15.3875 56.6723 15.6005C56.4592 15.8136 56.2888 16.0692 56.1609 16.3675C56.0331 16.6516 55.9692 16.9569 55.9692 17.2836V22.7164C55.9692 23.0431 56.0331 23.3555 56.1609 23.6538C56.2888 23.9379 56.4592 24.1864 56.6723 24.3995C56.8853 24.6125 57.1339 24.783 57.4179 24.9108C57.702 25.0386 58.0074 25.1025 58.334 25.1025C58.6607 25.1025 58.9661 25.0386 59.2502 24.9108C59.5342 24.783 59.7828 24.6125 59.9958 24.3995C60.2089 24.1864 60.3793 23.9379 60.5072 23.6538C60.635 23.3555 60.6989 23.0431 60.6989 22.7164V17.2836Z" fill="#1C2047"/>
<path d="M77.6844 21.7364C77.4856 21.7364 77.3151 21.8074 77.1731 21.9494C77.0453 22.0914 76.9814 22.2619 76.9814 22.4607V26.9134C76.9814 27.1549 76.889 27.368 76.7044 27.5526C76.5339 27.723 76.3209 27.8083 76.0652 27.8083H74.9787C74.7372 27.8083 74.5242 27.723 74.3395 27.5526C74.1691 27.368 74.0839 27.1549 74.0839 26.9134V13.0866C74.0839 12.8451 74.1691 12.6391 74.3395 12.4687C74.5242 12.2841 74.7372 12.1917 74.9787 12.1917H83.5859C83.8415 12.1917 84.0546 12.2841 84.225 12.4687C84.4097 12.6391 84.502 12.8451 84.502 13.0866V14.1944C84.502 14.4359 84.4097 14.6489 84.225 14.8336C84.0546 15.004 83.8415 15.0892 83.5859 15.0892H77.6844C77.4856 15.0892 77.3151 15.1602 77.1731 15.3023C77.0453 15.4301 76.9814 15.5934 76.9814 15.7923V18.1571C76.9814 18.356 77.0453 18.5264 77.1731 18.6684C77.3151 18.7963 77.4856 18.8602 77.6844 18.8602H81.9028C82.1584 18.8602 82.3715 18.9525 82.5419 19.1372C82.7266 19.3076 82.8189 19.5135 82.8189 19.755V20.8415C82.8189 21.0972 82.7266 21.3103 82.5419 21.4807C82.3715 21.6511 82.1584 21.7364 81.9028 21.7364H77.6844Z" fill="#1C2047"/>
<path d="M93.4704 24.9108C93.726 24.9108 93.9391 25.0031 94.1095 25.1877C94.2799 25.3582 94.3652 25.5641 94.3652 25.8056V26.9134C94.3652 27.1549 94.2799 27.368 94.1095 27.5526C93.9391 27.723 93.726 27.8083 93.4704 27.8083H88.3359C88.0944 27.8083 87.8814 27.723 87.6967 27.5526C87.5263 27.368 87.4411 27.1549 87.4411 26.9134V25.8056C87.4411 25.5641 87.5263 25.3582 87.6967 25.1877C87.8814 25.0031 88.0944 24.9108 88.3359 24.9108H88.762C88.9608 24.9108 89.1242 24.8469 89.252 24.719C89.394 24.577 89.465 24.4066 89.465 24.2077V15.7923C89.465 15.5934 89.394 15.4301 89.252 15.3023C89.1242 15.1602 88.9608 15.0892 88.762 15.0892H88.3359C88.0944 15.0892 87.8814 15.004 87.6967 14.8336C87.5263 14.6489 87.4411 14.4359 87.4411 14.1944V13.0866C87.4411 12.8451 87.5263 12.6391 87.6967 12.4687C87.8814 12.2841 88.0944 12.1917 88.3359 12.1917H93.4704C93.726 12.1917 93.9391 12.2841 94.1095 12.4687C94.2799 12.6391 94.3652 12.8451 94.3652 13.0866V14.1944C94.3652 14.4359 94.2799 14.6489 94.1095 14.8336C93.9391 15.004 93.726 15.0892 93.4704 15.0892H93.0656C92.8667 15.0892 92.6963 15.1602 92.5542 15.3023C92.4122 15.4301 92.3412 15.5934 92.3412 15.7923V24.2077C92.3412 24.4066 92.4122 24.577 92.5542 24.719C92.6963 24.8469 92.8667 24.9108 93.0656 24.9108H93.4704Z" fill="#1C2047"/>
<path d="M108.05 26.9134C108.05 27.1549 107.958 27.368 107.773 27.5526C107.603 27.723 107.397 27.8083 107.155 27.8083H106.473C106.175 27.8083 105.948 27.7585 105.792 27.6591C105.635 27.5455 105.522 27.4319 105.451 27.3182L101.637 20.5859C101.538 20.4296 101.396 20.3515 101.211 20.3515C101.055 20.3515 100.927 20.4012 100.828 20.5007C100.742 20.6001 100.7 20.7208 100.7 20.8628V26.9134C100.7 27.1549 100.607 27.368 100.423 27.5526C100.252 27.723 100.039 27.8083 99.7836 27.8083H98.6971C98.4556 27.8083 98.2426 27.723 98.0579 27.5526C97.8875 27.368 97.8023 27.1549 97.8023 26.9134V13.0866C97.8023 12.8451 97.8875 12.6391 98.0579 12.4687C98.2426 12.2841 98.4556 12.1917 98.6971 12.1917H99.4214C99.7197 12.1917 99.9398 12.2486 100.082 12.3622C100.238 12.4616 100.352 12.5681 100.423 12.6818L104.194 19.3715C104.293 19.5419 104.442 19.6272 104.641 19.6272C104.797 19.6272 104.918 19.5775 105.003 19.478C105.103 19.3786 105.152 19.2579 105.152 19.1158V13.0866C105.152 12.8451 105.238 12.6391 105.408 12.4687C105.593 12.2841 105.813 12.1917 106.069 12.1917H107.155C107.397 12.1917 107.603 12.2841 107.773 12.4687C107.958 12.6391 108.05 12.8451 108.05 13.0866V26.9134Z" fill="#1C2047"/>
<path d="M122.347 26.9987C122.347 27.0271 122.347 27.0555 122.347 27.0839C122.361 27.1123 122.368 27.1407 122.368 27.1691C122.368 27.3395 122.304 27.4887 122.176 27.6165C122.048 27.7443 121.892 27.8083 121.707 27.8083H120.259C120.102 27.8083 119.946 27.7727 119.79 27.7017C119.634 27.6307 119.534 27.5171 119.492 27.3609L119.151 26.0826C119.122 26.0257 119.094 25.9831 119.066 25.9547C119.009 25.8979 118.916 25.8553 118.789 25.8269H114.655C114.513 25.8553 114.421 25.8979 114.378 25.9547C114.322 26.0115 114.293 26.0541 114.293 26.0826L113.952 27.3609C113.91 27.5171 113.81 27.6307 113.654 27.7017C113.498 27.7727 113.342 27.8083 113.185 27.8083H111.715C111.545 27.8083 111.396 27.7443 111.268 27.6165C111.14 27.4887 111.076 27.3395 111.076 27.1691C111.076 27.0839 111.083 27.0271 111.098 26.9987L114.826 12.6818C114.897 12.5255 115.003 12.4048 115.145 12.3196C115.302 12.2344 115.465 12.1917 115.635 12.1917H117.809C118.164 12.1917 118.426 12.3551 118.597 12.6818L122.347 26.9987ZM118.128 22.8442C118.27 22.8442 118.341 22.7732 118.341 22.6312V22.5885L117.084 17.8589C117.013 17.7026 116.892 17.6245 116.722 17.6245C116.552 17.6245 116.431 17.7026 116.36 17.8589L115.103 22.5885V22.6312C115.103 22.7732 115.167 22.8442 115.295 22.8442H118.128Z" fill="#1C2047"/>
<path d="M135.368 26.9134C135.368 27.1549 135.275 27.368 135.091 27.5526C134.92 27.723 134.714 27.8083 134.473 27.8083H133.791C133.493 27.8083 133.266 27.7585 133.109 27.6591C132.953 27.5455 132.839 27.4319 132.768 27.3182L128.955 20.5859C128.855 20.4296 128.713 20.3515 128.529 20.3515C128.373 20.3515 128.245 20.4012 128.145 20.5007C128.06 20.6001 128.017 20.7208 128.017 20.8628V26.9134C128.017 27.1549 127.925 27.368 127.74 27.5526C127.57 27.723 127.357 27.8083 127.101 27.8083H126.015C125.773 27.8083 125.56 27.723 125.376 27.5526C125.205 27.368 125.12 27.1549 125.12 26.9134V13.0866C125.12 12.8451 125.205 12.6391 125.376 12.4687C125.56 12.2841 125.773 12.1917 126.015 12.1917H126.739C127.037 12.1917 127.258 12.2486 127.4 12.3622C127.556 12.4616 127.669 12.5681 127.74 12.6818L131.511 19.3715C131.611 19.5419 131.76 19.6272 131.959 19.6272C132.115 19.6272 132.236 19.5775 132.321 19.478C132.42 19.3786 132.47 19.2579 132.47 19.1158V13.0866C132.47 12.8451 132.555 12.6391 132.726 12.4687C132.91 12.2841 133.131 12.1917 133.386 12.1917H134.473C134.714 12.1917 134.92 12.2841 135.091 12.4687C135.275 12.6391 135.368 12.8451 135.368 13.0866V26.9134Z" fill="#1C2047"/>
<path d="M148.189 22.972C148.516 22.9578 148.764 23.0644 148.935 23.2916C149.105 23.5047 149.162 23.7035 149.105 23.8881C148.992 24.3569 148.835 24.783 148.637 25.1664C148.182 26.0044 147.536 26.6862 146.698 27.2117C145.874 27.7372 144.951 28 143.928 28C143.19 28 142.494 27.8651 141.84 27.5952C141.201 27.3111 140.64 26.9277 140.157 26.4447C139.674 25.9618 139.291 25.4008 139.007 24.7617C138.737 24.1083 138.602 23.4123 138.602 22.6738V17.3475C138.602 16.609 138.737 15.9201 139.007 15.281C139.291 14.6276 139.674 14.0595 140.157 13.5766C140.64 13.0937 141.201 12.7173 141.84 12.4474C142.494 12.1633 143.19 12.0213 143.928 12.0213C144.951 12.0213 145.874 12.2841 146.698 12.8096C147.536 13.3209 148.182 13.9956 148.637 14.8336C148.835 15.217 148.992 15.6502 149.105 16.1332C149.176 16.332 149.12 16.5379 148.935 16.751C148.764 16.9498 148.516 17.0422 148.189 17.028H146.868C146.527 17.028 146.307 16.8859 146.208 16.6019C146.208 16.6019 146.187 16.5593 146.144 16.474C146.116 16.3888 146.073 16.2965 146.016 16.1971C145.974 16.0834 145.91 15.9769 145.824 15.8775C145.753 15.7639 145.675 15.6715 145.59 15.6005C145.363 15.3875 145.107 15.217 144.823 15.0892C144.553 14.9614 144.255 14.8975 143.928 14.8975C143.602 14.8975 143.296 14.9614 143.012 15.0892C142.728 15.217 142.48 15.3875 142.266 15.6005C142.053 15.8136 141.883 16.0692 141.755 16.3675C141.627 16.6516 141.563 16.9569 141.563 17.2836V22.7164C141.563 23.0431 141.627 23.3555 141.755 23.6538C141.883 23.9379 142.053 24.1864 142.266 24.3995C142.48 24.6125 142.728 24.783 143.012 24.9108C143.296 25.0386 143.602 25.1025 143.928 25.1025C144.255 25.1025 144.553 25.0386 144.823 24.9108C145.107 24.783 145.363 24.6125 145.59 24.3995C145.675 24.3427 145.753 24.2574 145.824 24.1438C145.91 24.0302 145.974 23.9237 146.016 23.8242C146.073 23.7106 146.116 23.6112 146.144 23.526C146.187 23.4407 146.208 23.3981 146.208 23.3981C146.307 23.1141 146.527 22.972 146.868 22.972H148.189Z" fill="#1C2047"/>
<path d="M157.843 24.9108C158.099 24.9108 158.312 25.0031 158.482 25.1877C158.652 25.3582 158.738 25.5641 158.738 25.8056V26.9134C158.738 27.1549 158.652 27.368 158.482 27.5526C158.312 27.723 158.099 27.8083 157.843 27.8083H152.708C152.467 27.8083 152.254 27.723 152.069 27.5526C151.899 27.368 151.814 27.1549 151.814 26.9134V25.8056C151.814 25.5641 151.899 25.3582 152.069 25.1877C152.254 25.0031 152.467 24.9108 152.708 24.9108H153.134C153.333 24.9108 153.497 24.8469 153.624 24.719C153.767 24.577 153.838 24.4066 153.838 24.2077V15.7923C153.838 15.5934 153.767 15.4301 153.624 15.3023C153.497 15.1602 153.333 15.0892 153.134 15.0892H152.708C152.467 15.0892 152.254 15.004 152.069 14.8336C151.899 14.6489 151.814 14.4359 151.814 14.1944V13.0866C151.814 12.8451 151.899 12.6391 152.069 12.4687C152.254 12.2841 152.467 12.1917 152.708 12.1917H157.843C158.099 12.1917 158.312 12.2841 158.482 12.4687C158.652 12.6391 158.738 12.8451 158.738 13.0866V14.1944C158.738 14.4359 158.652 14.6489 158.482 14.8336C158.312 15.004 158.099 15.0892 157.843 15.0892H157.438C157.239 15.0892 157.069 15.1602 156.927 15.3023C156.785 15.4301 156.714 15.5934 156.714 15.7923V24.2077C156.714 24.4066 156.785 24.577 156.927 24.719C157.069 24.8469 157.239 24.9108 157.438 24.9108H157.843Z" fill="#1C2047"/>
<path d="M173.029 26.9987C173.029 27.0271 173.029 27.0555 173.029 27.0839C173.043 27.1123 173.05 27.1407 173.05 27.1691C173.05 27.3395 172.986 27.4887 172.859 27.6165C172.731 27.7443 172.574 27.8083 172.39 27.8083H170.941C170.785 27.8083 170.629 27.7727 170.472 27.7017C170.316 27.6307 170.217 27.5171 170.174 27.3609L169.833 26.0826C169.805 26.0257 169.776 25.9831 169.748 25.9547C169.691 25.8979 169.599 25.8553 169.471 25.8269H165.338C165.196 25.8553 165.104 25.8979 165.061 25.9547C165.004 26.0115 164.976 26.0541 164.976 26.0826L164.635 27.3609C164.592 27.5171 164.493 27.6307 164.337 27.7017C164.18 27.7727 164.024 27.8083 163.868 27.8083H162.398C162.227 27.8083 162.078 27.7443 161.95 27.6165C161.823 27.4887 161.759 27.3395 161.759 27.1691C161.759 27.0839 161.766 27.0271 161.78 26.9987L165.508 12.6818C165.579 12.5255 165.686 12.4048 165.828 12.3196C165.984 12.2344 166.147 12.1917 166.318 12.1917H168.491C168.846 12.1917 169.109 12.3551 169.279 12.6818L173.029 26.9987ZM168.811 22.8442C168.953 22.8442 169.024 22.7732 169.024 22.6312V22.5885L167.767 17.8589C167.696 17.7026 167.575 17.6245 167.404 17.6245C167.234 17.6245 167.113 17.7026 167.042 17.8589L165.785 22.5885V22.6312C165.785 22.7732 165.849 22.8442 165.977 22.8442H168.811Z" fill="#1C2047"/>
<path d="M184.702 24.9108C184.944 24.9108 185.15 25.0031 185.32 25.1877C185.505 25.3582 185.597 25.5641 185.597 25.8056V26.9134C185.597 27.1549 185.505 27.368 185.32 27.5526C185.15 27.723 184.944 27.8083 184.702 27.8083H176.926C176.685 27.8083 176.472 27.723 176.287 27.5526C176.116 27.368 176.031 27.1549 176.031 26.9134V13.0866C176.031 12.8451 176.116 12.6391 176.287 12.4687C176.472 12.2841 176.685 12.1917 176.926 12.1917H178.034C178.275 12.1917 178.481 12.2841 178.652 12.4687C178.836 12.6391 178.929 12.8451 178.929 13.0866V24.2077C178.929 24.4066 178.993 24.577 179.12 24.719C179.263 24.8469 179.433 24.9108 179.632 24.9108H184.702Z" fill="#1C2047"/>
</svg>
