<svg width="86" height="40" viewBox="0 0 86 40" fill="none" xmlns="http://www.w3.org/2000/svg">
<rect width="86" height="40" rx="8" fill="white"/>
<path d="M15.3714 27.6293C15.0662 27.6293 14.6916 27.6225 14.2476 27.6087C13.8036 27.6087 13.3735 27.6019 12.9573 27.5882C12.555 27.5744 12.2359 27.5607 12 27.547C12 25.831 12 24.2111 12 22.6873C12.0139 21.1634 12.0277 19.8318 12.0416 18.6924C12.0694 17.5393 12.0902 16.6813 12.1041 16.1184C12.548 16.1184 13.0683 16.1253 13.6649 16.139C14.2615 16.1527 14.7956 16.1733 15.2673 16.2008C15.2812 16.4891 15.2951 16.8803 15.309 17.3745C16.4466 16.4273 17.5843 15.9537 18.722 15.9537C19.3047 15.9537 19.8111 16.0772 20.2412 16.3243C20.6713 16.5714 21.032 16.9695 21.3234 17.5187C22.4194 16.4753 23.6126 15.9537 24.9029 15.9537C26.3874 15.9537 27.4835 16.7156 28.191 18.2394C28.9125 19.7632 29.2732 22.1107 29.2732 25.2819C29.2732 25.6525 29.2663 26.0163 29.2524 26.3732C29.2524 26.7164 29.2385 27.094 29.2108 27.5058C28.8223 27.5607 28.302 27.6019 27.6499 27.6293C26.9979 27.6568 26.325 27.6705 25.6313 27.6705C25.6729 27.094 25.7006 26.4762 25.7145 25.8172C25.7423 25.1583 25.7561 24.5062 25.7561 23.861C25.7561 21.7332 25.6243 20.1613 25.3607 19.1454C25.111 18.1158 24.7225 17.601 24.1953 17.601C23.8346 17.601 23.4392 17.8138 23.0091 18.2394C22.5929 18.665 22.2599 19.1935 22.0101 19.825C22.1211 20.4702 22.1974 21.2184 22.2391 22.0695C22.2946 22.9069 22.3223 23.8473 22.3223 24.8906C22.3223 25.7967 22.3015 26.6821 22.2599 27.547C21.9824 27.5607 21.6286 27.5744 21.1985 27.5882C20.7823 27.6019 20.3453 27.6087 19.8874 27.6087C19.4434 27.6225 19.0411 27.6293 18.6804 27.6293C18.722 26.9018 18.7497 26.1193 18.7636 25.2819C18.7914 24.4444 18.8052 23.6482 18.8052 22.8932C18.8052 21.589 18.7636 20.5526 18.6804 19.7838C18.611 19.0013 18.4861 18.4453 18.3058 18.1158C18.1393 17.7726 17.9034 17.601 17.5982 17.601C17.2236 17.601 16.8212 17.8207 16.3911 18.26C15.9749 18.6993 15.6211 19.2415 15.3298 19.8867C15.3437 20.9438 15.3506 22.1381 15.3506 23.4698C15.3645 24.7876 15.3714 26.1742 15.3714 27.6293Z" fill="#1C2047"/>
<path d="M35.1346 27.6911C34.2606 27.6911 33.4697 27.444 32.7622 26.9498C32.0685 26.4556 31.5204 25.7761 31.1181 24.9112C30.7157 24.0463 30.5146 23.0716 30.5146 21.9871C30.5146 20.8614 30.7227 19.8456 31.1389 18.9395C31.569 18.0335 32.1448 17.3127 32.8662 16.7773C33.5877 16.2282 34.3854 15.9537 35.2595 15.9537C36.0503 15.9537 36.8828 16.1802 37.7568 16.6332C37.7568 14.8074 37.7568 13.263 37.7568 12C38.0759 12 38.4505 12.0069 38.8806 12.0206C39.3246 12.0206 39.7686 12.0275 40.2125 12.0412C40.6565 12.0549 41.0311 12.0686 41.3363 12.0824C41.3363 12.7825 41.3363 13.6199 41.3363 14.5946C41.3363 15.5556 41.3294 16.5852 41.3155 17.6834C41.3155 18.7816 41.3086 19.873 41.2947 20.9575C41.2947 22.0283 41.2878 23.0305 41.2739 23.964C41.2739 24.8975 41.267 25.6868 41.2531 26.332C41.2531 26.9773 41.2461 27.4097 41.2323 27.6293C40.6357 27.6293 40.0252 27.6156 39.4009 27.5882C38.7766 27.5744 38.2632 27.5607 37.8609 27.547C37.8609 27.3685 37.8539 27.1145 37.8401 26.7851C36.9799 27.3891 36.0781 27.6911 35.1346 27.6911ZM33.657 21.3282C33.657 22.2205 33.7611 23.0236 33.9692 23.7375C34.1912 24.4376 34.4825 24.9936 34.8433 25.4054C35.2179 25.8035 35.6341 26.0026 36.0919 26.0026C36.7163 26.0026 37.292 25.6388 37.8193 24.9112C37.8054 24.1012 37.7915 23.1883 37.7776 22.1725C37.7776 21.1429 37.7776 20.0995 37.7776 19.0425C37.5418 18.5894 37.2435 18.2394 36.8828 17.9923C36.5359 17.7314 36.1544 17.601 35.7381 17.601C35.0861 17.601 34.5727 17.9305 34.1981 18.5894C33.8374 19.2347 33.657 20.1476 33.657 21.3282Z" fill="#1C2047"/>
<path d="M46.9888 12C46.9611 12.7825 46.9403 13.5513 46.9264 14.3063C46.9125 15.0613 46.9056 15.7615 46.9056 16.4067C46.9056 18.5757 46.968 20.3535 47.0929 21.74C47.2316 23.1128 47.4397 24.1699 47.7172 24.9112C47.9947 25.6388 48.3624 26.1193 48.8202 26.3526L47.3634 28C46.6142 27.9176 45.983 27.6774 45.4696 27.2793C44.9701 26.8674 44.5678 26.2565 44.2626 25.4466C43.9573 24.6229 43.7354 23.559 43.5966 22.2548C43.4717 20.9507 43.4093 19.3582 43.4093 17.4775C43.4093 16.695 43.4162 15.8438 43.4301 14.9241C43.4579 13.9906 43.4856 13.0433 43.5134 12.0824C43.9157 12.0549 44.3944 12.0343 44.9493 12.0206C45.5043 12.0069 46.1841 12 46.9888 12Z" fill="#1C2047"/>
<path d="M53.5508 27.6293C52.9542 27.6293 52.3438 27.6156 51.7194 27.5882C51.0951 27.5744 50.5818 27.5607 50.1794 27.547C50.1656 27.2312 50.1517 26.7302 50.1378 26.0438C50.1378 25.3436 50.1309 24.5268 50.117 23.5933C50.117 22.6598 50.1101 21.6714 50.0962 20.6281C50.0962 19.571 50.0892 18.5139 50.0754 17.4569C50.0754 16.3998 50.0754 15.3977 50.0754 14.4505C50.0754 13.5032 50.0754 12.6864 50.0754 12C50.3945 12 50.7691 12.0069 51.1992 12.0206C51.6431 12.0206 52.0871 12.0275 52.5311 12.0412C52.975 12.0549 53.3496 12.0686 53.6549 12.0824C53.6549 13.3728 53.6549 14.9515 53.6549 16.8185C54.4873 16.242 55.3614 15.9537 56.2771 15.9537C57.165 15.9537 57.9558 16.2008 58.6495 16.695C59.3432 17.1892 59.8913 17.8687 60.2936 18.7336C60.696 19.5847 60.8971 20.5594 60.8971 21.6577C60.8971 22.7696 60.6821 23.7855 60.252 24.7053C59.8358 25.6113 59.2669 26.3389 58.5455 26.888C57.8379 27.4234 57.0401 27.6911 56.1522 27.6911C55.3336 27.6911 54.4734 27.4509 53.5716 26.9704C53.5578 27.245 53.5508 27.4646 53.5508 27.6293ZM55.3198 17.6422C54.7093 17.6422 54.1474 17.9854 53.6341 18.6718C53.6341 19.7014 53.6271 20.7242 53.6133 21.74C53.6133 22.7559 53.6063 23.6894 53.5924 24.5405C53.8283 25.0073 54.1266 25.3779 54.4873 25.6525C54.8619 25.9133 55.2573 26.0438 55.6736 26.0438C56.3256 26.0438 56.832 25.7143 57.1928 25.0553C57.5674 24.3964 57.7547 23.4835 57.7547 22.3166C57.7547 21.4243 57.6437 20.6281 57.4217 19.9279C57.2136 19.2141 56.9292 18.6581 56.5684 18.26C56.2077 17.8481 55.7915 17.6422 55.3198 17.6422Z" fill="#1C2047"/>
<path d="M66.1334 27.6911C64.9541 27.6911 63.9899 27.4097 63.2407 26.8468C62.5053 26.2703 62.1377 25.5221 62.1377 24.6023C62.1377 23.7649 62.4429 22.9893 63.0534 22.2754C63.6777 21.5616 64.5379 20.9575 65.6339 20.4633C66.73 19.9554 67.9856 19.6053 69.4007 19.4131C68.9013 18.2051 68.2145 17.601 67.3405 17.601C66.8132 17.601 66.1334 17.8001 65.301 18.1982C64.4685 18.5963 63.6222 19.118 62.762 19.7632L62.1377 17.704C64.2049 16.5371 66.1612 15.9537 68.0064 15.9537C69.4493 15.9537 70.6078 16.3449 71.4819 17.1274C72.3559 17.8962 72.9941 19.1317 73.3965 20.834C73.7988 22.5225 74 24.7602 74 27.547C73.7364 27.5607 73.2647 27.5744 72.5848 27.5882C71.9189 27.6156 71.1974 27.6293 70.4205 27.6293C70.4205 27.19 70.4136 26.7576 70.3997 26.332C68.9707 27.2381 67.5486 27.6911 66.1334 27.6911ZM65.5715 24.4582C65.5715 24.8837 65.738 25.2201 66.071 25.4672C66.4178 25.7143 66.8757 25.8378 67.4445 25.8378C68.4434 25.8378 69.4077 25.4123 70.3372 24.5611C70.254 23.106 70.0945 21.8773 69.8586 20.8752C69.3175 20.985 68.7903 21.1634 68.2769 21.4106C67.7775 21.6577 67.3196 21.9528 66.9034 22.296C66.5011 22.6255 66.175 22.9824 65.9253 23.3668C65.6894 23.7375 65.5715 24.1012 65.5715 24.4582Z" fill="#1C2047"/>
</svg>
