<svg width="114" height="42" viewBox="0 0 114 42" fill="none" xmlns="http://www.w3.org/2000/svg">
<rect width="114" height="42" rx="8" fill="white"/>
<path d="M22.3217 15.3072C23.3723 15.3072 24.193 15.6145 24.784 16.2292C25.3749 16.8439 25.6704 17.6656 25.6704 18.6946V25.8501H24.2915V19.0754C24.2915 17.3383 23.5496 16.4697 22.0657 16.4697C21.7181 16.4565 21.3719 16.5215 21.0518 16.6601C20.7318 16.7987 20.4457 17.0074 20.2141 17.2715C19.735 17.8456 19.4885 18.5837 19.5246 19.3359V25.8501H18.1458V19.0754C18.1458 17.3383 17.3972 16.4697 15.9002 16.4697C15.5813 16.4605 15.2637 16.5161 14.9661 16.6331C14.6685 16.7501 14.3968 16.9262 14.1668 17.1512C13.6976 17.6189 13.4167 18.2478 13.3789 18.915V25.8301H12V15.6078H13.3001V16.8706C13.9173 15.8417 14.889 15.3272 16.2154 15.3272C17.6336 15.3272 18.6119 15.9018 19.1504 17.051C19.8595 15.9018 20.91 15.3272 22.302 15.3272L22.3217 15.3072ZM35.3618 23.0841L36.2482 23.946C35.6627 24.636 34.9542 25.2073 34.1602 25.6296C33.446 25.9716 32.6645 26.143 31.8752 26.1307C30.4045 26.1307 29.2292 25.643 28.3493 24.6675C27.4695 23.6921 27.0295 22.4026 27.0295 20.7991C27.0295 19.1689 27.4629 17.846 28.3296 16.8305C29.1963 15.815 30.3322 15.3072 31.7374 15.3072C33.1162 15.3072 34.2062 15.7481 35.0072 16.6301C35.8083 17.512 36.2022 18.6945 36.1891 20.1778C36.1876 20.3988 36.1745 20.6196 36.1497 20.8392H28.4281C28.4368 21.8878 28.7598 22.9087 29.3539 23.7656C29.9186 24.5673 30.759 24.9682 31.8752 24.9682C32.4769 24.9839 33.0728 24.8461 33.6087 24.5673C34.2674 24.1634 34.8647 23.6637 35.3815 23.0841H35.3618ZM31.7374 16.4697C31.3317 16.4559 30.9274 16.525 30.5484 16.6731C30.1694 16.8211 29.8235 17.045 29.5312 17.3316C28.9534 17.9062 28.5988 18.7213 28.4675 19.7769H34.8496C34.8234 18.7614 34.5345 17.9596 33.9829 17.3717C33.4314 16.7837 32.6894 16.4831 31.7571 16.4697H31.7374ZM45.3684 23.0841L46.2351 23.946C45.6553 24.634 44.9537 25.2052 44.1668 25.6296C43.4526 25.9716 42.671 26.143 41.8818 26.1307C40.3979 26.1307 39.216 25.643 38.3362 24.6675C37.4563 23.6921 37.023 22.4026 37.0361 20.7991C37.0361 19.1689 37.4629 17.846 38.3165 16.8305C39.1701 15.815 40.306 15.3072 41.7242 15.3072C43.1031 15.3072 44.193 15.7481 44.9941 16.6301C45.7951 17.512 46.1957 18.6945 46.1957 20.1778C46.1943 20.3988 46.1811 20.6196 46.1563 20.8392H38.4347C38.4376 21.8857 38.7536 22.9064 39.3408 23.7656C39.9186 24.5673 40.7656 24.9682 41.8818 24.9682C42.4768 24.9806 43.0656 24.8428 43.5955 24.5673C44.2543 24.1634 44.8515 23.6637 45.3684 23.0841ZM41.7242 16.4697C41.3185 16.4559 40.9142 16.525 40.5353 16.6731C40.1563 16.8211 39.8104 17.045 39.5181 17.3316C38.9402 17.9062 38.5923 18.7213 38.4741 19.7769H44.8168C44.7971 18.7747 44.5016 17.9529 43.9698 17.3717C43.438 16.7904 42.6697 16.4697 41.7242 16.4697ZM52.3808 24.5673L52.6369 25.6697C52.0064 25.9074 51.3395 26.0295 50.6671 26.0305C49.8004 26.0305 49.1701 25.8301 48.7761 25.4292C48.3821 25.0283 48.1852 24.427 48.1852 23.6253V16.6301H46.2745V15.6078H48.2049V12H49.5837V15.6078H52.4596V16.61H49.5837V23.4248C49.5837 23.9326 49.6756 24.2934 49.8595 24.5072C50.0565 24.7076 50.3913 24.8279 50.8444 24.8279C51.3733 24.8249 51.8985 24.737 52.4005 24.5673H52.3808ZM59.2948 14.6858C59.9406 14.6707 60.5813 14.8055 61.1684 15.0798C61.7554 15.3542 62.2733 15.761 62.6829 16.2693C63.5627 17.2982 64.0092 18.6812 64.0223 20.4183C64.0355 22.1554 63.589 23.5384 62.6829 24.5673C62.2713 25.0797 61.7507 25.4903 61.1603 25.7681C60.57 26.0459 59.9254 26.1836 59.2751 26.1708C57.87 26.1708 56.8063 25.6898 56.084 24.7277V29.6784H53.3657V15.0065H55.8871V16.4296C56.6487 15.2671 57.7846 14.6858 59.2948 14.6858ZM56.7144 22.8235C56.9467 23.1143 57.2416 23.3469 57.5763 23.5033C57.911 23.6597 58.2766 23.7357 58.6448 23.7255C59.0108 23.7405 59.375 23.6665 59.7073 23.5096C60.0396 23.3527 60.3304 23.1176 60.5555 22.8235C61.0151 22.2356 61.2449 21.4338 61.2449 20.4183C61.2449 19.4028 61.0085 18.5877 60.5358 17.973C60.3169 17.6756 60.0307 17.4365 59.7014 17.2759C59.3722 17.1154 59.0097 17.0382 58.6448 17.051C58.275 17.0431 57.9084 17.1223 57.5736 17.2822C57.2387 17.4421 56.9447 17.6785 56.7144 17.973C56.2022 18.601 55.9462 19.4161 55.9462 20.4183C55.9462 21.4205 56.2022 22.2222 56.7144 22.8235ZM70.6408 23.8658C71.1702 23.8776 71.6953 23.768 72.1773 23.5451C72.7605 23.2087 73.3083 22.8124 73.8122 22.3625L75.329 24.0662C74.6995 24.7566 73.9433 25.315 73.1031 25.7098C72.3033 26.0421 71.4455 26.2058 70.5817 26.1908C68.8615 26.1908 67.4957 25.6764 66.4846 24.6475C65.4734 23.6186 64.9744 22.2289 64.9875 20.4784C64.9875 18.768 65.48 17.365 66.4649 16.2693C67.4498 15.1736 68.7498 14.6257 70.3651 14.6257C71.9409 14.6257 73.1687 15.1001 74.0486 16.0488C74.9284 16.9975 75.3618 18.3338 75.3487 20.0575C75.3487 20.3582 75.3487 20.7189 75.3093 21.1399H67.6467C67.7781 21.9951 68.0932 22.6632 68.5922 23.1442C69.0913 23.6253 69.7807 23.8658 70.6605 23.8658H70.6408ZM70.2469 16.8105C68.8812 16.8105 68.0276 17.5988 67.6861 19.1756H72.6894C72.6702 18.5219 72.41 17.8994 71.9606 17.4318C71.7324 17.2197 71.4653 17.0556 71.1746 16.949C70.8838 16.8424 70.5753 16.7953 70.2666 16.8105H70.2469ZM81.6323 14.8662C82.2032 14.9008 82.7666 15.0154 83.3066 15.207L82.8142 17.6122C82.3715 17.4861 81.9147 17.4187 81.455 17.4118C81.1304 17.3992 80.8075 17.4653 80.513 17.6047C80.2184 17.7441 79.9607 17.9528 79.761 18.2135C79.3408 18.7614 79.1307 19.523 79.1307 20.4985V25.8501H76.432V15.0065H78.9534V16.61C79.5181 15.4475 80.411 14.8662 81.6323 14.8662ZM89.413 14.8662C89.9829 14.8943 90.5464 15.0022 91.0873 15.1869L90.6146 17.5922C90.1655 17.4644 89.702 17.397 89.2357 17.3917C88.9094 17.3814 88.5855 17.4507 88.2908 17.5936C87.9961 17.7366 87.7393 17.9491 87.5417 18.2135C87.1215 18.7614 86.9114 19.523 86.9114 20.4985V25.8501H84.193V15.0065H86.7144V16.61C87.2791 15.4475 88.172 14.8662 89.3933 14.8662H89.413ZM99.2423 15.0065H102L97.8831 27.0728C97.5154 28.115 97.0558 28.8633 96.5043 29.3176C95.9527 29.772 95.1779 29.9991 94.1799 29.9991C93.4871 30.0103 92.7966 29.9157 92.1313 29.7185L92.5844 27.654C92.9993 27.7415 93.4214 27.7885 93.845 27.7943C94.6855 27.7943 95.2502 27.34 95.5391 26.4314L91.5207 15.0065H94.3769L95.3027 17.8527C95.9199 19.7101 96.432 21.3136 96.8391 22.6632C97.4038 20.7657 97.8963 19.1556 98.3165 17.8327L99.2423 15.0065Z" fill="#B98B2C"/>
</svg>
