<svg width="300" height="273" viewBox="0 0 300 273" fill="none" xmlns="http://www.w3.org/2000/svg">
<g clip-path="url(#clip0_883_21307)">
<circle cx="177.5" cy="177.5" r="177.5" fill="#4E67ED"/>
<circle cx="177.5" cy="177.5" r="177.5" fill="#8B94E9"/>
<circle cx="177.5" cy="177.5" r="177.5" fill="#D1D9FF"/>
<circle cx="177.5" cy="177.5" r="177.5" fill="#E1EAF5"/>
<mask id="mask0_883_21307" style="mask-type:alpha" maskUnits="userSpaceOnUse" x="0" y="0" width="355" height="355">
<circle cx="177.5" cy="177.5" r="177.5" fill="#763FEB"/>
</mask>
<g mask="url(#mask0_883_21307)">
<g clip-path="url(#clip1_883_21307)">
<path d="M102.99 143.249H77.1987L114.166 180.033H139.097L102.99 143.249Z" fill="#1C2047"/>
<path d="M95.2525 123.573L77.1987 105.608H123.517C127.011 105.608 130.535 105.962 133.769 107.286C148.47 113.302 151.993 125.4 151.993 134.694C151.993 144.959 144.256 156.08 132.22 159.502L115.885 143.248C121.903 143.248 132.22 141.537 133.079 134.694C133.939 127.85 128.781 123.573 123.623 123.573H95.2525Z" fill="#1C2047"/>
<path d="M151.573 180.511H185.322V171.006H163.272V161.052H183.596V151.524H163.272V141.594H189.481L185.322 132.089H151.573V180.511Z" fill="#1C2047"/>
<path d="M198.928 180.511H210.177L218.898 151.146H219.276L227.997 180.511H239.27L253.332 132.089H240.428L233.102 163.89H232.7L224.357 132.089H213.817L205.474 163.819H205.073L197.77 132.089H184.842L198.928 180.511Z" fill="#1C2047"/>
<path d="M89.0476 195.527H82.3941V213.988H79.6786V195.527H73.0393V193.279H89.0476V195.527Z" fill="#1C2047"/>
<path d="M103.819 204.416H94.848V211.755H105.269V213.988H92.1184V193.279H105.127V195.527H94.848V202.183H103.819V204.416Z" fill="#1C2047"/>
<path d="M123.893 207.418C123.638 209.608 122.827 211.301 121.462 212.496C120.107 213.681 118.301 214.274 116.046 214.274C113.6 214.274 111.638 213.396 110.16 211.642C108.691 209.888 107.956 207.541 107.956 204.602V202.611C107.956 200.686 108.297 198.993 108.98 197.533C109.672 196.072 110.648 194.954 111.909 194.176C113.169 193.389 114.629 192.996 116.287 192.996C118.486 192.996 120.249 193.612 121.576 194.845C122.903 196.068 123.675 197.765 123.893 199.936H121.15C120.913 198.287 120.396 197.092 119.6 196.352C118.813 195.613 117.709 195.243 116.287 195.243C114.543 195.243 113.174 195.888 112.179 197.177C111.193 198.467 110.7 200.302 110.7 202.682V204.687C110.7 206.934 111.169 208.722 112.108 210.049C113.046 211.377 114.359 212.04 116.046 212.04C117.562 212.04 118.723 211.699 119.529 211.016C120.344 210.324 120.884 209.125 121.15 207.418H123.893Z" fill="#1C2047"/>
<path d="M143.541 213.988H140.797V204.416H130.362V213.988H127.632V193.279H130.362V202.183H140.797V193.279H143.541V213.988Z" fill="#1C2047"/>
<path d="M164.298 213.988H161.554L151.133 198.03V213.988H148.389V193.279H151.133L161.582 209.309V193.279H164.298V213.988Z" fill="#1C2047"/>
<path d="M185.069 204.303C185.069 206.332 184.727 208.105 184.045 209.623C183.363 211.13 182.396 212.282 181.145 213.079C179.894 213.875 178.434 214.274 176.766 214.274C175.136 214.274 173.691 213.875 172.43 213.079C171.169 212.273 170.188 211.13 169.487 209.651C168.795 208.162 168.44 206.441 168.421 204.488V202.995C168.421 201.003 168.767 199.244 169.458 197.718C170.15 196.191 171.127 195.025 172.387 194.219C173.657 193.403 175.107 192.996 176.738 192.996C178.396 192.996 179.856 193.399 181.116 194.205C182.387 195.001 183.363 196.163 184.045 197.689C184.727 199.206 185.069 200.975 185.069 202.995V204.303ZM182.353 202.966C182.353 200.51 181.86 198.628 180.875 197.319C179.889 196.002 178.51 195.342 176.738 195.342C175.013 195.342 173.652 196.002 172.657 197.319C171.672 198.628 171.164 200.448 171.136 202.781V204.303C171.136 206.683 171.634 208.556 172.629 209.921C173.634 211.277 175.013 211.955 176.766 211.955C178.529 211.955 179.894 211.315 180.861 210.035C181.827 208.746 182.325 206.901 182.353 204.502V202.966Z" fill="#1C2047"/>
<path d="M191.907 211.755H201.717V213.988H189.163V193.279H191.907V211.755Z" fill="#1C2047"/>
<path d="M219.815 204.303C219.815 206.332 219.474 208.105 218.791 209.623C218.109 211.13 217.142 212.282 215.891 213.079C214.64 213.875 213.181 214.274 211.512 214.274C209.882 214.274 208.437 213.875 207.176 213.079C205.916 212.273 204.935 211.13 204.233 209.651C203.541 208.162 203.186 206.441 203.167 204.488V202.995C203.167 201.003 203.513 199.244 204.205 197.718C204.897 196.191 205.873 195.025 207.134 194.219C208.404 193.403 209.854 192.996 211.484 192.996C213.143 192.996 214.602 193.399 215.863 194.205C217.133 195.001 218.109 196.163 218.791 197.689C219.474 199.206 219.815 200.975 219.815 202.995V204.303ZM217.1 202.966C217.1 200.51 216.607 198.628 215.621 197.319C214.636 196.002 213.256 195.342 211.484 195.342C209.759 195.342 208.399 196.002 207.404 197.319C206.418 198.628 205.911 200.448 205.883 202.781V204.303C205.883 206.683 206.38 208.556 207.375 209.921C208.38 211.277 209.759 211.955 211.512 211.955C213.275 211.955 214.64 211.315 215.607 210.035C216.574 208.746 217.071 206.901 217.1 204.502V202.966Z" fill="#1C2047"/>
<path d="M239.193 211.272C238.492 212.278 237.511 213.031 236.25 213.534C234.999 214.027 233.539 214.274 231.871 214.274C230.184 214.274 228.686 213.88 227.378 213.093C226.071 212.297 225.056 211.168 224.336 209.708C223.625 208.248 223.26 206.555 223.241 204.63V202.824C223.241 199.704 223.966 197.286 225.417 195.57C226.876 193.854 228.924 192.996 231.558 192.996C233.719 192.996 235.458 193.55 236.776 194.66C238.093 195.76 238.899 197.324 239.193 199.353H236.463C235.951 196.613 234.321 195.243 231.572 195.243C229.743 195.243 228.355 195.888 227.407 197.177C226.469 198.457 225.995 200.316 225.985 202.753V204.445C225.985 206.768 226.516 208.617 227.578 209.992C228.639 211.358 230.075 212.04 231.885 212.04C232.909 212.04 233.805 211.927 234.572 211.699C235.34 211.472 235.975 211.087 236.477 210.547V205.896H231.686V203.677H239.193V211.272Z" fill="#1C2047"/>
<path d="M250.069 203.677L255.472 193.279H258.571L251.434 206.265V213.988H248.704V206.265L241.567 193.279H244.695L250.069 203.677Z" fill="#1C2047"/>
</g>
</g>
</g>
<defs>
<clipPath id="clip0_883_21307">
<path d="M0 0H300V233C300 255.091 282.091 273 260 273H0V0Z" fill="white"/>
</clipPath>
<clipPath id="clip1_883_21307">
<rect width="187.176" height="110.275" fill="white" transform="translate(73.0393 105.608)"/>
</clipPath>
</defs>
</svg>
