<svg width="62" height="40" viewBox="0 0 62 40" fill="none" xmlns="http://www.w3.org/2000/svg">
<rect width="61.6235" height="40" rx="8" fill="white"/>
<path d="M17.5092 20.0405H12L19.8965 27.898H25.2221L17.5092 20.0405Z" fill="#1C2047"/>
<path d="M15.8564 15.8374L12 12H21.8939C22.6403 12 23.393 12.0757 24.0838 12.3584C27.2241 13.6435 27.9767 16.2277 27.9767 18.2129C27.9767 20.4057 26.3239 22.7813 23.7529 23.5122L20.2638 20.0403C21.5493 20.0403 23.7529 19.6748 23.9366 18.2129C24.1203 16.7511 23.0184 15.8374 21.9166 15.8374H15.8564Z" fill="#1C2047"/>
<path d="M27.8872 28.0002H35.0961V25.9699H30.3861V23.8436H34.7276V21.8083H30.3861V19.6871H35.9846L35.0961 17.6567H27.8872V28.0002Z" fill="#1C2047"/>
<path d="M38.0024 28.0002H40.4054L42.2682 21.7275H42.349L44.2118 28.0002H46.6199L49.6236 17.6567H46.8673L45.3023 24.4497H45.2165L43.4344 17.6567H41.1829L39.4008 24.4345H39.315L37.7551 17.6567H34.9937L38.0024 28.0002Z" fill="#1C2047"/>
</svg>
