<svg width="103" height="40" viewBox="0 0 103 40" fill="none" xmlns="http://www.w3.org/2000/svg">
<rect width="102.847" height="40" rx="8" fill="white"/>
<path d="M17.4371 28L12 13.0584H14.9053L18.5162 22.9157L22.1271 13.0584H24.8041L28.415 22.9157L32.0052 13.0584H34.9313L29.4942 28H27.3359L23.4553 17.4163L19.5953 28H17.4371Z" fill="#6EC686"/>
<path d="M39.1088 28C38.5831 28 38.1058 27.8686 37.6769 27.6057C37.248 27.3428 36.9021 26.997 36.6393 26.5681C36.3764 26.1392 36.245 25.6619 36.245 25.1362V18.8275C36.245 18.3018 36.3764 17.8245 36.6393 17.3956C36.9021 16.9667 37.248 16.6208 37.6769 16.358C38.1058 16.0951 38.5831 15.9637 39.1088 15.9637H45.6042C46.13 15.9637 46.6073 16.0951 47.0362 16.358C47.4789 16.6208 47.8247 16.9667 48.0738 17.3956C48.3366 17.8245 48.4681 18.3018 48.4681 18.8275V23.3515H38.9635V25.0324C38.9635 25.1016 38.9843 25.1639 39.0258 25.2192C39.0811 25.2607 39.1434 25.2815 39.2125 25.2815H48.4681V28H39.1088ZM38.9635 20.9027H45.7495V18.9313C45.7495 18.8621 45.7218 18.8067 45.6665 18.7652C45.625 18.7099 45.5697 18.6822 45.5005 18.6822H39.2125C39.1434 18.6822 39.0811 18.7099 39.0258 18.7652C38.9843 18.8067 38.9635 18.8621 38.9635 18.9313V20.9027Z" fill="#6EC686"/>
<path d="M53.8418 28C53.316 28 52.8387 27.8686 52.4099 27.6057C51.981 27.3428 51.6351 26.997 51.3722 26.5681C51.1094 26.1392 50.978 25.6619 50.978 25.1362V12H53.7172V25.0324C53.7172 25.1016 53.738 25.1639 53.7795 25.2192C53.8348 25.2607 53.8971 25.2815 53.9663 25.2815H56.2698V28H53.8418Z" fill="#6EC686"/>
<path d="M61.5825 28C61.0568 28 60.5795 27.8686 60.1506 27.6057C59.7217 27.3428 59.3759 26.997 59.113 26.5681C58.8501 26.1392 58.7187 25.6619 58.7187 25.1362V12H61.458V25.0324C61.458 25.1016 61.4788 25.1639 61.5203 25.2192C61.5756 25.2607 61.6379 25.2815 61.707 25.2815H64.0105V28H61.5825Z" fill="#6EC686"/>
<path d="M73.4909 28V15.9637H76.2095V28H73.4909ZM73.4909 14.7601V12.0208H76.2095V14.7601H73.4909Z" fill="#313131"/>
<path d="M81.4671 28C80.9275 28 80.4433 27.8686 80.0144 27.6057C79.5855 27.3428 79.2397 26.997 78.9768 26.5681C78.7278 26.1392 78.6033 25.6619 78.6033 25.1362V18.8275C78.6033 18.3018 78.7278 17.8245 78.9768 17.3956C79.2397 16.9667 79.5855 16.6208 80.0144 16.358C80.4433 16.0951 80.9275 15.9637 81.4671 15.9637H88.1286V12.0208H90.8471V28H81.4671ZM81.5916 25.2815H87.8795C87.9487 25.2815 88.0041 25.2607 88.0456 25.2192C88.1009 25.1639 88.1286 25.1016 88.1286 25.0324V18.9313C88.1286 18.8621 88.1009 18.8067 88.0456 18.7652C88.0041 18.7099 87.9487 18.6822 87.8795 18.6822H81.5916C81.5224 18.6822 81.4602 18.7099 81.4048 18.7652C81.3633 18.8067 81.3426 18.8621 81.3426 18.9313V25.0324C81.3426 25.1016 81.3633 25.1639 81.4048 25.2192C81.4602 25.2607 81.5224 25.2815 81.5916 25.2815Z" fill="#313131"/>
</svg>
