<svg width="20" height="20" viewBox="0 0 20 20" fill="none" xmlns="http://www.w3.org/2000/svg">
<circle cx="10" cy="10" r="10" fill="#BCCCE1"/>
<path d="M14.6819 9.85531C14.6804 9.84411 14.6756 9.8328 14.674 9.8216C14.6724 9.8104 14.6676 9.79909 14.666 9.78789C14.6612 9.77658 14.6596 9.76538 14.6547 9.75418C14.6499 9.74287 14.6483 9.73167 14.6434 9.72047C14.6386 9.70915 14.6338 9.7012 14.629 9.68989C14.6241 9.67858 14.6193 9.66749 14.6129 9.65461C14.6065 9.64498 14.6017 9.63691 14.5968 9.62571C14.5888 9.61451 14.5839 9.6032 14.5759 9.592C14.5694 9.58237 14.5614 9.57106 14.5535 9.56311C14.547 9.55347 14.5407 9.54384 14.5326 9.53578C14.5198 9.51976 14.5037 9.50375 14.4893 9.4893L14.4845 9.48448L10.5154 5.51543C10.2313 5.23129 9.76883 5.23117 9.48457 5.51543C9.20042 5.79958 9.2003 6.26204 9.48457 6.5463L12.211 9.27271L6.03104 9.27099C5.62963 9.27099 5.30372 9.59691 5.30372 9.99831C5.30372 10.2006 5.38559 10.3821 5.51719 10.5137C5.6489 10.6454 5.83023 10.7273 6.03261 10.7272H12.2108L9.48442 13.4536C9.20028 13.7378 9.20016 14.2002 9.48442 14.4845C9.76857 14.7686 10.231 14.7688 10.5153 14.4845L14.4845 10.5155C14.5021 10.4979 14.5166 10.4803 14.5326 10.4609C14.5407 10.4528 14.5455 10.4449 14.5519 10.4351C14.5599 10.4239 14.5679 10.4126 14.5744 10.403C14.5809 10.3934 14.5856 10.3822 14.5937 10.371C14.6001 10.3613 14.6064 10.3517 14.6113 10.3405C14.6162 10.3292 14.6225 10.3197 14.6274 10.3083C14.6322 10.297 14.6386 10.2875 14.6434 10.2762C14.6482 10.2649 14.6514 10.2554 14.6563 10.2441C14.6611 10.2328 14.6659 10.2217 14.6691 10.2088C14.6723 10.1992 14.6755 10.1863 14.6771 10.1751C14.6803 10.1622 14.6835 10.1526 14.6867 10.1397C14.69 10.1268 14.69 10.114 14.6932 10.1012C14.6948 10.09 14.698 10.0802 14.698 10.0706C14.7029 10.0241 14.7029 9.97593 14.698 9.9261C14.698 9.91647 14.6949 9.90683 14.6932 9.89552C14.6868 9.88287 14.6836 9.86999 14.682 9.85565L14.6819 9.85531Z" fill="#F2F6FB"/>
</svg>
