<svg width="22" height="22" viewBox="0 0 22 22" fill="none" xmlns="http://www.w3.org/2000/svg">
<path d="M17.6 13.2H15.4V8.8H17.6C20.0299 8.8 22 6.8299 22 4.4C22 1.9701 20.0299 0 17.6 0C15.1698 0 13.2 1.9701 13.2 4.4V6.6H8.8V4.4C8.8 1.9701 6.8299 0 4.4 0C1.9701 0 0 1.9701 0 4.4C0 6.8299 1.9701 8.8 4.4 8.8H6.6V13.2H4.4C1.9701 13.2 0 15.1701 0 17.6C0 20.0299 1.9701 22 4.4 22C6.83017 22 8.8 20.0299 8.8 17.6V15.4H13.2V17.5945C13.2 17.5967 13.1997 17.5984 13.1997 17.6C13.1997 20.0299 15.1698 22 17.5997 22C20.0296 22 21.9997 20.0299 21.9997 17.6C21.9997 15.1701 20.0299 13.2006 17.6 13.2ZM17.6 2.2C18.815 2.2 19.8 3.18505 19.8 4.4C19.8 5.61495 18.815 6.6 17.6 6.6H15.4V4.4C15.4 3.18505 16.385 2.2 17.6 2.2ZM2.2 4.4C2.2 3.18505 3.18505 2.2 4.4 2.2C5.61495 2.2 6.6 3.18505 6.6 4.4V6.6H4.4C3.18505 6.6 2.2 5.61468 2.2 4.4ZM4.4 19.8C3.18505 19.8 2.2 18.815 2.2 17.6C2.2 16.385 3.18505 15.4 4.4 15.4H6.6V17.6C6.6 18.815 5.61495 19.8 4.4 19.8ZM8.8 13.2V8.8H13.2V13.2H8.8ZM17.6 19.8C16.385 19.8 15.4 18.815 15.4 17.6V15.4H17.5997C18.8147 15.4 19.7997 16.385 19.7997 17.6C19.7997 18.815 18.815 19.8 17.6 19.8Z" fill="#2E2E2E"/>
</svg>
