<svg width="120" height="120" viewBox="0 0 120 120" fill="none" xmlns="http://www.w3.org/2000/svg">
<g clip-path="url(#clip0_654_12452)">
<path d="M102.244 102.25H84.4647V74.3972C84.4647 67.7563 84.345 59.2048 75.2161 59.2048C65.9559 59.2048 64.538 66.4396 64.538 73.9092V102.248H46.7589V44.986H63.8267V52.8124H64.0569C65.7654 49.8916 68.234 47.4889 71.1999 45.8602C74.1658 44.2314 77.5179 43.4376 80.8992 43.5634C98.9201 43.5634 102.244 55.4181 102.244 70.8385V102.25ZM26.6963 37.1572C24.6553 37.1577 22.66 36.5528 20.9628 35.4192C19.2655 34.2856 17.9426 32.6741 17.1612 30.7885C16.3798 28.9029 16.1751 26.8279 16.573 24.826C16.9709 22.8241 17.9535 20.9852 19.3966 19.5417C20.8396 18.0983 22.6783 17.1153 24.68 16.7169C26.6818 16.3185 28.7567 16.5228 30.6424 17.3037C32.5281 18.0847 34.1398 19.4074 35.2738 21.1044C36.4078 22.8015 37.013 24.7967 37.013 26.8378C37.013 29.5743 35.9262 32.1987 33.9915 34.1339C32.0568 36.0691 29.4327 37.1566 26.6963 37.1572ZM35.5859 102.248H17.7883V44.986H35.5882L35.5859 102.248ZM111.099 0.00926468H8.85274C7.70253 -0.00471714 6.56086 0.20832 5.49309 0.636181C4.42533 1.06404 3.45244 1.69832 2.63013 2.5027C1.80781 3.30709 1.15224 4.26577 0.70092 5.32387C0.249605 6.38197 0.011418 7.51871 0 8.66899V111.333C0.0273202 113.656 0.975271 115.872 2.63561 117.496C4.29595 119.119 6.53289 120.018 8.85504 119.993H111.099C113.427 120.024 115.673 119.13 117.341 117.506C119.01 115.882 119.966 113.662 119.998 111.333V8.65057C119.964 6.32368 119.008 4.10531 117.339 2.48347C115.67 0.86163 113.426 -0.0308453 111.099 0.00235928" fill="white"/>
</g>
<defs>
<clipPath id="clip0_654_12452">
<rect width="120" height="120" fill="white"/>
</clipPath>
</defs>
</svg>
