<svg width="47" height="48" viewBox="0 0 47 48" fill="none" xmlns="http://www.w3.org/2000/svg">
<rect width="47" height="48" rx="23.5" fill="white"/>
<rect width="47" height="48" rx="23.5" fill="#003658"/>
<rect width="47" height="48" rx="23.5" fill="#7681F3"/>
<path fill-rule="evenodd" clip-rule="evenodd" d="M18.3542 35.9415V29.4013H20.0811V33.9223C25.1775 35.1514 30.2319 32.7373 32.2956 28.2162C32.8853 26.9433 33.138 25.5826 33.1802 24.178C33.2082 21.9558 33.1989 19.7531 33.1895 17.5438V17.5436C33.1848 16.4365 33.1802 15.3278 33.1802 14.2142C33.1802 14.1264 33.1802 14.0386 33.138 13.863H28.2943V12.0195H34.9913V12.8535C34.9913 13.9216 34.9866 14.9896 34.9819 16.0577C34.9726 18.1939 34.9632 20.33 34.9913 22.4662C35.0334 24.5291 34.9492 26.5921 34.1489 28.5235C32.1693 33.0884 28.7998 35.6342 23.9561 35.9415C22.7561 36.0287 21.5377 36.0004 20.2885 35.9713C19.6523 35.9565 19.008 35.9415 18.3542 35.9415ZM13.7632 35.9415H12.0784C12.0784 35.8038 12.0669 35.6661 12.056 35.5347C12.0459 35.4148 12.0363 35.3 12.0363 35.1952C12.0363 34.2572 12.041 33.3241 12.0457 32.3926C12.0551 30.5344 12.0644 28.6828 12.0363 26.8116C12.033 26.6631 12.0294 26.5148 12.0259 26.3668C11.9841 24.634 11.9431 22.9356 12.3312 21.2372C12.9224 18.6474 14.3234 16.3361 16.3137 14.6673C18.3039 12.9985 20.7702 12.067 23.3243 12.0195C24.1074 11.9904 24.8906 11.9999 25.6861 12.0096C26.0885 12.0146 26.4941 12.0195 26.9044 12.0195V13.9069C26.594 13.9069 26.2882 13.9119 25.984 13.9168C25.3804 13.9265 24.7829 13.9361 24.1667 13.9069C18.4806 13.5997 13.3841 18.2963 13.8053 25.4509C13.9511 27.8212 13.9152 30.1914 13.8794 32.5617C13.8634 33.6151 13.8475 34.6685 13.8475 35.722C13.8053 35.7659 13.7632 35.8537 13.7632 35.9415ZM31.8743 15.3555V22.2907C31.8743 23.4319 31.8743 24.5731 31.7059 25.6705C31.1162 29.4453 27.7467 32.5178 24.0402 32.6495C23.5082 32.6787 22.9576 32.6691 22.4007 32.6593H22.4007H22.4005C22.1198 32.6545 21.8375 32.6495 21.5552 32.6495V29.4453H23.282C23.3031 29.6647 23.3137 29.8842 23.3241 30.1037C23.3347 30.3232 23.3453 30.5426 23.3663 30.7621C25.0089 30.8499 26.3989 30.3232 27.6203 29.3136C29.263 27.9529 30.1054 26.1532 30.1054 23.9586C30.1335 22.6093 30.1241 21.2599 30.1146 19.9236C30.11 19.2604 30.1054 18.6004 30.1054 17.9452C30.1054 17.7257 30.1054 17.4624 30.0632 17.199H28.3785V15.3555H31.8743ZM26.9043 17.1551H23.7032C20.7128 17.199 18.6489 18.6914 17.4275 21.5006C17.3164 21.761 17.2603 22.0214 17.1987 22.307C17.1669 22.4546 17.1336 22.609 17.0905 22.7734H23.1978V24.6609H15.153C15.0736 23.5036 15.2151 22.3413 15.5693 21.2414C15.9236 20.1414 16.4836 19.1255 17.2169 18.2525C19.7861 15.0921 23.282 15.0482 26.9043 15.3116V17.1551ZM23.2399 26.1094H15.2373V35.8976H17.0063V27.9529H23.2399V26.1094Z" fill="#2E2E2E"/>
<path fill-rule="evenodd" clip-rule="evenodd" d="M18.3542 35.9415V29.4013H20.0811V33.9223C25.1775 35.1514 30.2319 32.7373 32.2956 28.2162C32.8853 26.9433 33.138 25.5826 33.1802 24.178C33.2082 21.9558 33.1989 19.7531 33.1895 17.5438V17.5436C33.1848 16.4365 33.1802 15.3278 33.1802 14.2142C33.1802 14.1264 33.1802 14.0386 33.138 13.863H28.2943V12.0195H34.9913V12.8535C34.9913 13.9216 34.9866 14.9896 34.9819 16.0577C34.9726 18.1939 34.9632 20.33 34.9913 22.4662C35.0334 24.5291 34.9492 26.5921 34.1489 28.5235C32.1693 33.0884 28.7998 35.6342 23.9561 35.9415C22.7561 36.0287 21.5377 36.0004 20.2885 35.9713C19.6523 35.9565 19.008 35.9415 18.3542 35.9415ZM13.7632 35.9415H12.0784C12.0784 35.8038 12.0669 35.6661 12.056 35.5347C12.0459 35.4148 12.0363 35.3 12.0363 35.1952C12.0363 34.2572 12.041 33.3241 12.0457 32.3926C12.0551 30.5344 12.0644 28.6828 12.0363 26.8116C12.033 26.6631 12.0294 26.5148 12.0259 26.3668C11.9841 24.634 11.9431 22.9356 12.3312 21.2372C12.9224 18.6474 14.3234 16.3361 16.3137 14.6673C18.3039 12.9985 20.7702 12.067 23.3243 12.0195C24.1074 11.9904 24.8906 11.9999 25.6861 12.0096C26.0885 12.0146 26.4941 12.0195 26.9044 12.0195V13.9069C26.594 13.9069 26.2882 13.9119 25.984 13.9168C25.3804 13.9265 24.7829 13.9361 24.1667 13.9069C18.4806 13.5997 13.3841 18.2963 13.8053 25.4509C13.9511 27.8212 13.9152 30.1914 13.8794 32.5617C13.8634 33.6151 13.8475 34.6685 13.8475 35.722C13.8053 35.7659 13.7632 35.8537 13.7632 35.9415ZM31.8743 15.3555V22.2907C31.8743 23.4319 31.8743 24.5731 31.7059 25.6705C31.1162 29.4453 27.7467 32.5178 24.0402 32.6495C23.5082 32.6787 22.9576 32.6691 22.4007 32.6593H22.4007H22.4005C22.1198 32.6545 21.8375 32.6495 21.5552 32.6495V29.4453H23.282C23.3031 29.6647 23.3137 29.8842 23.3241 30.1037C23.3347 30.3232 23.3453 30.5426 23.3663 30.7621C25.0089 30.8499 26.3989 30.3232 27.6203 29.3136C29.263 27.9529 30.1054 26.1532 30.1054 23.9586C30.1335 22.6093 30.1241 21.2599 30.1146 19.9236C30.11 19.2604 30.1054 18.6004 30.1054 17.9452C30.1054 17.7257 30.1054 17.4624 30.0632 17.199H28.3785V15.3555H31.8743ZM26.9043 17.1551H23.7032C20.7128 17.199 18.6489 18.6914 17.4275 21.5006C17.3164 21.761 17.2603 22.0214 17.1987 22.307C17.1669 22.4546 17.1336 22.609 17.0905 22.7734H23.1978V24.6609H15.153C15.0736 23.5036 15.2151 22.3413 15.5693 21.2414C15.9236 20.1414 16.4836 19.1255 17.2169 18.2525C19.7861 15.0921 23.282 15.0482 26.9043 15.3116V17.1551ZM23.2399 26.1094H15.2373V35.8976H17.0063V27.9529H23.2399V26.1094Z" fill="white"/>
</svg>
