<svg width="185" height="49" viewBox="0 0 185 49" fill="none" xmlns="http://www.w3.org/2000/svg">
<path d="M176.45 0.359436H8.45044C4.03216 0.359436 0.450439 3.94116 0.450439 8.35944V40.3594C0.450439 44.7777 4.03216 48.3594 8.45044 48.3594H176.45C180.869 48.3594 184.45 44.7777 184.45 40.3594V8.35944C184.45 3.94116 180.869 0.359436 176.45 0.359436Z" fill="white"/>
<path d="M37.4504 7.35944H11.4504C9.2413 7.35944 7.45044 9.1503 7.45044 11.3594V37.3594C7.45044 39.5686 9.2413 41.3594 11.4504 41.3594H37.4504C39.6596 41.3594 41.4504 39.5686 41.4504 37.3594V11.3594C41.4504 9.1503 39.6596 7.35944 37.4504 7.35944Z" fill="#F2F6FB"/>
</svg>
