<svg width="190" height="48" viewBox="0 0 190 48" fill="none" xmlns="http://www.w3.org/2000/svg">
<g clip-path="url(#clip0_106_57)">
<rect width="190" height="48" rx="8" fill="white"/>
<rect x="0.391113" y="0.335693" width="190" height="48" rx="8" fill="white"/>
<rect x="7.39111" y="7.33569" width="34" height="34" rx="4" fill="#F2F6FB"/>
<path d="M15.9138 13.9727L18.2178 13.9727C18.7218 13.9727 19.1658 14.0477 19.5498 14.1977C19.9398 14.3417 20.2638 14.5517 20.5218 14.8277C20.7858 15.0977 20.9838 15.4307 21.1158 15.8267C21.2478 16.2227 21.3138 16.6667 21.3138 17.1587C21.3138 17.6567 21.2478 18.1007 21.1158 18.4907C20.9838 18.8807 20.7888 19.2137 20.5308 19.4897C20.2788 19.7657 19.9608 19.9757 19.5768 20.1197C19.1988 20.2637 18.7578 20.3357 18.2538 20.3357L15.9138 20.3357L15.9138 13.9727ZM16.9578 14.9087L16.9578 19.4087L18.2268 19.4087C18.5748 19.4087 18.8748 19.3547 19.1268 19.2467C19.3788 19.1387 19.5858 18.9887 19.7478 18.7967C19.9158 18.5987 20.0388 18.3617 20.1168 18.0857C20.2008 17.8097 20.2428 17.5007 20.2428 17.1587C20.2428 16.4507 20.0688 15.8987 19.7208 15.5027C19.3788 15.1067 18.8778 14.9087 18.2178 14.9087L16.9578 14.9087ZM22.4441 13.9727L26.8631 13.9727L26.8631 14.9087L23.4881 14.9087L23.4881 16.7177L26.4761 16.7177L26.4761 17.6627L23.4881 17.6627L23.4881 19.4087L26.8631 19.4087L26.8631 20.3357L22.4441 20.3357L22.4441 13.9727ZM30.636 14.8277C30.3 14.8277 30.009 14.8907 29.763 15.0167C29.523 15.1427 29.325 15.3107 29.169 15.5207C29.013 15.7307 28.896 15.9767 28.818 16.2587C28.746 16.5347 28.71 16.8257 28.71 17.1317C28.71 17.4437 28.749 17.7407 28.827 18.0227C28.905 18.3047 29.022 18.5537 29.178 18.7697C29.34 18.9797 29.544 19.1477 29.79 19.2737C30.036 19.3997 30.327 19.4627 30.663 19.4627C31.077 19.4627 31.422 19.3727 31.698 19.1927C31.98 19.0127 32.157 18.7697 32.229 18.4637L33.273 18.4637C33.225 18.7697 33.123 19.0427 32.967 19.2827C32.817 19.5227 32.628 19.7267 32.4 19.8947C32.172 20.0567 31.908 20.1827 31.608 20.2727C31.308 20.3567 30.987 20.3987 30.645 20.3987C30.147 20.3987 29.709 20.3177 29.331 20.1557C28.959 19.9937 28.647 19.7687 28.395 19.4807C28.143 19.1927 27.954 18.8507 27.828 18.4547C27.702 18.0587 27.639 17.6237 27.639 17.1497C27.639 16.6877 27.702 16.2587 27.828 15.8627C27.96 15.4607 28.152 15.1157 28.404 14.8277C28.656 14.5337 28.968 14.3057 29.34 14.1437C29.718 13.9757 30.156 13.8917 30.654 13.8917C31.356 13.8917 31.935 14.0567 32.391 14.3867C32.847 14.7167 33.123 15.2027 33.219 15.8447L32.193 15.8447C32.115 15.5327 31.941 15.2867 31.671 15.1067C31.401 14.9207 31.056 14.8277 30.636 14.8277ZM21.7617 36.3357L19.9057 36.3357L19.9057 27.6317L17.6017 27.6317L17.6017 26.3677C18.2311 26.3464 18.7857 26.245 19.2657 26.0637C19.7457 25.8717 20.1244 25.525 20.4017 25.0237L21.7617 25.0237L21.7617 36.3357ZM24.7511 36.3357L29.1191 26.6877L23.5031 26.6877L23.5031 25.0237L31.2151 25.0237L31.2151 26.4637L26.8151 36.3357L24.7511 36.3357Z" fill="#A0B3CC"/>
<path d="M51.568 12.504L55.6 18.192L55.6 12.504L57.304 12.504L57.304 21L55.636 21L51.604 15.336L51.604 21L49.9 21L49.9 12.504L51.568 12.504ZM61.7512 19.716C61.9912 19.716 62.1952 19.68 62.3632 19.608C62.5392 19.528 62.6832 19.4 62.7952 19.224L64.5712 19.224C64.4832 19.552 64.3472 19.836 64.1632 20.076C63.9872 20.316 63.7712 20.512 63.5152 20.664C63.2672 20.816 62.9912 20.928 62.6872 21C62.3832 21.064 62.0632 21.096 61.7272 21.096C60.7032 21.096 59.9272 20.808 59.3992 20.232C58.8792 19.656 58.6192 18.848 58.6192 17.808C58.6192 17.336 58.6872 16.9 58.8232 16.5C58.9672 16.1 59.1672 15.756 59.4232 15.468C59.6792 15.172 59.9952 14.944 60.3712 14.784C60.7552 14.624 61.1912 14.544 61.6792 14.544C62.2472 14.544 62.7392 14.644 63.1552 14.844C63.5712 15.044 63.8992 15.32 64.1392 15.672C64.3872 16.016 64.5512 16.42 64.6312 16.884C64.7192 17.348 64.7192 17.844 64.6312 18.372L60.3112 18.372C60.3432 18.748 60.4752 19.068 60.7072 19.332C60.9392 19.588 61.2872 19.716 61.7512 19.716ZM63.0592 17.208C63.0592 17.008 63.0232 16.832 62.9512 16.68C62.8792 16.52 62.7832 16.392 62.6632 16.296C62.5432 16.192 62.3992 16.116 62.2312 16.068C62.0712 16.02 61.9032 15.996 61.7272 15.996C61.3032 16.004 60.9712 16.12 60.7312 16.344C60.4992 16.56 60.3632 16.848 60.3232 17.208L63.0592 17.208ZM67.081 21L65.125 14.676L66.997 14.676L68.137 19.068L69.433 14.676L71.125 14.676L72.409 19.068L73.549 14.676L75.313 14.676L73.369 21L71.509 21L70.237 16.812L69.001 21L67.081 21ZM82.323 19.584C82.451 19.584 82.595 19.56 82.755 19.512C82.915 19.464 83.055 19.404 83.175 19.332L83.655 20.616C83.543 20.688 83.415 20.756 83.271 20.82C83.135 20.876 82.983 20.928 82.815 20.976C82.655 21.016 82.503 21.044 82.359 21.06C82.215 21.076 82.083 21.084 81.963 21.084C81.579 21.084 81.239 21.032 80.943 20.928C80.655 20.824 80.415 20.668 80.223 20.46C80.047 20.284 79.915 20.056 79.827 19.776C79.747 19.496 79.707 19.18 79.707 18.828L79.707 16.152L78.747 16.152L78.747 14.676L79.707 14.676L79.707 12.948L81.399 12.948L81.399 14.676L83.259 14.676L83.259 16.152L81.399 16.152L81.399 18.432C81.399 18.576 81.407 18.716 81.423 18.852C81.447 18.98 81.491 19.1 81.555 19.212C81.627 19.324 81.723 19.416 81.843 19.488C81.971 19.552 82.131 19.584 82.323 19.584ZM87.2395 19.716C87.4795 19.716 87.6835 19.68 87.8515 19.608C88.0275 19.528 88.1715 19.4 88.2835 19.224L90.0595 19.224C89.9715 19.552 89.8355 19.836 89.6515 20.076C89.4755 20.316 89.2595 20.512 89.0035 20.664C88.7555 20.816 88.4795 20.928 88.1755 21C87.8715 21.064 87.5515 21.096 87.2155 21.096C86.1915 21.096 85.4155 20.808 84.8875 20.232C84.3675 19.656 84.1075 18.848 84.1075 17.808C84.1075 17.336 84.1755 16.9 84.3115 16.5C84.4555 16.1 84.6555 15.756 84.9115 15.468C85.1675 15.172 85.4835 14.944 85.8595 14.784C86.2435 14.624 86.6795 14.544 87.1675 14.544C87.7355 14.544 88.2275 14.644 88.6435 14.844C89.0595 15.044 89.3875 15.32 89.6275 15.672C89.8755 16.016 90.0395 16.42 90.1195 16.884C90.2075 17.348 90.2075 17.844 90.1195 18.372L85.7995 18.372C85.8315 18.748 85.9635 19.068 86.1955 19.332C86.4275 19.588 86.7755 19.716 87.2395 19.716ZM88.5475 17.208C88.5475 17.008 88.5115 16.832 88.4395 16.68C88.3675 16.52 88.2715 16.392 88.1515 16.296C88.0315 16.192 87.8875 16.116 87.7195 16.068C87.5595 16.02 87.3915 15.996 87.2155 15.996C86.7915 16.004 86.4595 16.12 86.2195 16.344C85.9875 16.56 85.8515 16.848 85.8115 17.208L88.5475 17.208ZM95.2573 20.22C95.0173 20.54 94.7253 20.768 94.3813 20.904C94.0373 21.04 93.6373 21.104 93.1813 21.096C92.5973 21.08 92.1093 20.916 91.7173 20.604C91.5093 20.428 91.3453 20.22 91.2253 19.98C91.1133 19.732 91.0573 19.44 91.0573 19.104C91.0653 18.76 91.1413 18.456 91.2853 18.192C91.4373 17.92 91.6653 17.696 91.9693 17.52C92.2253 17.384 92.5133 17.288 92.8333 17.232C93.1613 17.176 93.5173 17.148 93.9013 17.148L95.1973 17.148C95.2213 16.756 95.1293 16.464 94.9213 16.272C94.7213 16.072 94.4373 15.968 94.0693 15.96C93.9493 15.96 93.8253 15.968 93.6973 15.984C93.5693 16 93.4493 16.032 93.3373 16.08C93.2333 16.128 93.1413 16.196 93.0613 16.284C92.9893 16.364 92.9413 16.464 92.9173 16.584L91.1773 16.584C91.2173 16.2 91.3213 15.88 91.4893 15.624C91.6653 15.36 91.8853 15.148 92.1493 14.988C92.4133 14.828 92.7053 14.716 93.0253 14.652C93.3533 14.58 93.6893 14.544 94.0333 14.544C94.2253 14.544 94.4213 14.556 94.6213 14.58C94.8213 14.596 95.0173 14.636 95.2093 14.7C95.4013 14.756 95.5813 14.836 95.7493 14.94C95.9253 15.036 96.0893 15.164 96.2413 15.324C96.5133 15.636 96.6813 15.996 96.7453 16.404C96.8173 16.804 96.8493 17.196 96.8413 17.58L96.8413 21L95.2933 21L95.2573 20.22ZM95.1973 18.204L93.9613 18.204C93.8413 18.204 93.7053 18.216 93.5533 18.24C93.4013 18.264 93.2693 18.308 93.1573 18.372C93.0453 18.436 92.9493 18.52 92.8693 18.624C92.7973 18.728 92.7613 18.856 92.7613 19.008C92.7613 19.136 92.7853 19.248 92.8333 19.344C92.8893 19.44 92.9573 19.52 93.0373 19.584C93.1253 19.648 93.2293 19.7 93.3493 19.74C93.4693 19.772 93.5893 19.788 93.7093 19.788C93.9413 19.796 94.1573 19.756 94.3573 19.668C94.5653 19.58 94.7453 19.456 94.8973 19.296C94.9933 19.168 95.0653 19.024 95.1133 18.864C95.1693 18.696 95.1973 18.476 95.1973 18.204ZM99.8682 15.492C100.108 15.188 100.364 14.956 100.636 14.796C100.916 14.636 101.232 14.552 101.584 14.544C102.04 14.536 102.408 14.624 102.688 14.808C102.968 14.992 103.188 15.244 103.348 15.564C103.628 15.22 103.928 14.964 104.248 14.796C104.568 14.628 104.932 14.544 105.34 14.544C105.66 14.544 105.932 14.588 106.156 14.676C106.38 14.764 106.576 14.884 106.744 15.036C106.976 15.252 107.14 15.528 107.236 15.864C107.34 16.192 107.392 16.564 107.392 16.98L107.392 21L105.7 21L105.7 17.436C105.7 17.268 105.688 17.096 105.664 16.92C105.64 16.744 105.588 16.592 105.508 16.464C105.436 16.328 105.328 16.224 105.184 16.152C105.04 16.072 104.856 16.04 104.632 16.056C104.432 16.072 104.256 16.136 104.104 16.248C103.952 16.352 103.844 16.488 103.78 16.656C103.716 16.824 103.672 17.004 103.648 17.196C103.632 17.388 103.624 17.576 103.624 17.76L103.624 21L101.932 21L101.932 17.436C101.932 17.268 101.92 17.096 101.896 16.92C101.872 16.744 101.82 16.592 101.74 16.464C101.66 16.328 101.552 16.224 101.416 16.152C101.28 16.072 101.1 16.04 100.876 16.056C100.644 16.072 100.46 16.136 100.324 16.248C100.188 16.352 100.084 16.488 100.012 16.656C99.9482 16.816 99.9042 16.996 99.8802 17.196C99.8642 17.388 99.8562 17.576 99.8562 17.76L99.8562 21L98.1642 21L98.1642 14.676L99.7842 14.676L99.8682 15.492ZM113.614 15.492C113.854 15.188 114.11 14.956 114.382 14.796C114.662 14.636 114.978 14.552 115.33 14.544C115.786 14.536 116.154 14.624 116.434 14.808C116.714 14.992 116.934 15.244 117.094 15.564C117.374 15.22 117.674 14.964 117.994 14.796C118.314 14.628 118.678 14.544 119.086 14.544C119.406 14.544 119.678 14.588 119.902 14.676C120.126 14.764 120.322 14.884 120.49 15.036C120.722 15.252 120.886 15.528 120.982 15.864C121.086 16.192 121.138 16.564 121.138 16.98L121.138 21L119.446 21L119.446 17.436C119.446 17.268 119.434 17.096 119.41 16.92C119.386 16.744 119.334 16.592 119.254 16.464C119.182 16.328 119.074 16.224 118.93 16.152C118.786 16.072 118.602 16.04 118.378 16.056C118.178 16.072 118.002 16.136 117.85 16.248C117.698 16.352 117.59 16.488 117.526 16.656C117.462 16.824 117.418 17.004 117.394 17.196C117.378 17.388 117.37 17.576 117.37 17.76L117.37 21L115.678 21L115.678 17.436C115.678 17.268 115.666 17.096 115.642 16.92C115.618 16.744 115.566 16.592 115.486 16.464C115.406 16.328 115.298 16.224 115.162 16.152C115.026 16.072 114.846 16.04 114.622 16.056C114.39 16.072 114.206 16.136 114.07 16.248C113.934 16.352 113.83 16.488 113.758 16.656C113.694 16.816 113.65 16.996 113.626 17.196C113.61 17.388 113.602 17.576 113.602 17.76L113.602 21L111.91 21L111.91 14.676L113.53 14.676L113.614 15.492ZM125.302 19.716C125.542 19.716 125.746 19.68 125.914 19.608C126.09 19.528 126.234 19.4 126.346 19.224L128.122 19.224C128.034 19.552 127.898 19.836 127.714 20.076C127.538 20.316 127.322 20.512 127.066 20.664C126.818 20.816 126.542 20.928 126.238 21C125.934 21.064 125.614 21.096 125.278 21.096C124.254 21.096 123.478 20.808 122.95 20.232C122.43 19.656 122.17 18.848 122.17 17.808C122.17 17.336 122.238 16.9 122.374 16.5C122.518 16.1 122.718 15.756 122.974 15.468C123.23 15.172 123.546 14.944 123.922 14.784C124.306 14.624 124.742 14.544 125.23 14.544C125.798 14.544 126.29 14.644 126.706 14.844C127.122 15.044 127.45 15.32 127.69 15.672C127.938 16.016 128.102 16.42 128.182 16.884C128.27 17.348 128.27 17.844 128.182 18.372L123.862 18.372C123.894 18.748 124.026 19.068 124.258 19.332C124.49 19.588 124.838 19.716 125.302 19.716ZM126.61 17.208C126.61 17.008 126.574 16.832 126.502 16.68C126.43 16.52 126.334 16.392 126.214 16.296C126.094 16.192 125.95 16.116 125.782 16.068C125.622 16.02 125.454 15.996 125.278 15.996C124.854 16.004 124.522 16.12 124.282 16.344C124.05 16.56 123.914 16.848 123.874 17.208L126.61 17.208ZM131.052 15.492C131.292 15.188 131.548 14.956 131.82 14.796C132.1 14.636 132.416 14.552 132.768 14.544C133.224 14.536 133.592 14.624 133.872 14.808C134.152 14.992 134.372 15.244 134.532 15.564C134.812 15.22 135.112 14.964 135.432 14.796C135.752 14.628 136.116 14.544 136.524 14.544C136.844 14.544 137.116 14.588 137.34 14.676C137.564 14.764 137.76 14.884 137.928 15.036C138.16 15.252 138.324 15.528 138.42 15.864C138.524 16.192 138.576 16.564 138.576 16.98L138.576 21L136.884 21L136.884 17.436C136.884 17.268 136.872 17.096 136.848 16.92C136.824 16.744 136.772 16.592 136.692 16.464C136.62 16.328 136.512 16.224 136.368 16.152C136.224 16.072 136.04 16.04 135.816 16.056C135.616 16.072 135.44 16.136 135.288 16.248C135.136 16.352 135.028 16.488 134.964 16.656C134.9 16.824 134.856 17.004 134.832 17.196C134.816 17.388 134.808 17.576 134.808 17.76L134.808 21L133.116 21L133.116 17.436C133.116 17.268 133.104 17.096 133.08 16.92C133.056 16.744 133.004 16.592 132.924 16.464C132.844 16.328 132.736 16.224 132.6 16.152C132.464 16.072 132.284 16.04 132.06 16.056C131.828 16.072 131.644 16.136 131.508 16.248C131.372 16.352 131.268 16.488 131.196 16.656C131.132 16.816 131.088 16.996 131.064 17.196C131.048 17.388 131.04 17.576 131.04 17.76L131.04 21L129.348 21L129.348 14.676L130.968 14.676L131.052 15.492ZM141.551 15.48C141.807 15.176 142.119 14.948 142.487 14.796C142.863 14.636 143.239 14.552 143.615 14.544C144.063 14.536 144.479 14.616 144.863 14.784C145.247 14.944 145.567 15.216 145.823 15.6C146.031 15.88 146.183 16.212 146.279 16.596C146.375 16.972 146.423 17.368 146.423 17.784C146.423 18.304 146.359 18.78 146.231 19.212C146.111 19.636 145.903 20 145.607 20.304C145.359 20.568 145.059 20.768 144.707 20.904C144.363 21.032 144.015 21.096 143.663 21.096C143.255 21.096 142.871 21.028 142.511 20.892C142.159 20.748 141.839 20.504 141.551 20.16L141.551 21L139.859 21L139.859 12.504L141.551 12.504L141.551 15.48ZM141.551 17.856C141.559 18.368 141.703 18.784 141.983 19.104C142.271 19.424 142.667 19.588 143.171 19.596C143.443 19.604 143.675 19.564 143.867 19.476C144.059 19.388 144.215 19.264 144.335 19.104C144.463 18.936 144.559 18.744 144.623 18.528C144.695 18.312 144.731 18.076 144.731 17.82C144.731 17.572 144.695 17.34 144.623 17.124C144.559 16.908 144.459 16.72 144.323 16.56C144.195 16.4 144.035 16.276 143.843 16.188C143.651 16.1 143.419 16.056 143.147 16.056C142.891 16.056 142.659 16.104 142.451 16.2C142.251 16.296 142.083 16.428 141.947 16.596C141.819 16.756 141.719 16.948 141.647 17.172C141.583 17.388 141.551 17.616 141.551 17.856ZM150.392 19.716C150.632 19.716 150.836 19.68 151.004 19.608C151.18 19.528 151.324 19.4 151.436 19.224L153.212 19.224C153.124 19.552 152.988 19.836 152.804 20.076C152.628 20.316 152.412 20.512 152.156 20.664C151.908 20.816 151.632 20.928 151.328 21C151.024 21.064 150.704 21.096 150.368 21.096C149.344 21.096 148.568 20.808 148.04 20.232C147.52 19.656 147.26 18.848 147.26 17.808C147.26 17.336 147.328 16.9 147.464 16.5C147.608 16.1 147.808 15.756 148.064 15.468C148.32 15.172 148.636 14.944 149.012 14.784C149.396 14.624 149.832 14.544 150.32 14.544C150.888 14.544 151.38 14.644 151.796 14.844C152.212 15.044 152.54 15.32 152.78 15.672C153.028 16.016 153.192 16.42 153.272 16.884C153.36 17.348 153.36 17.844 153.272 18.372L148.952 18.372C148.984 18.748 149.116 19.068 149.348 19.332C149.58 19.588 149.928 19.716 150.392 19.716ZM151.7 17.208C151.7 17.008 151.664 16.832 151.592 16.68C151.52 16.52 151.424 16.392 151.304 16.296C151.184 16.192 151.04 16.116 150.872 16.068C150.712 16.02 150.544 15.996 150.368 15.996C149.944 16.004 149.612 16.12 149.372 16.344C149.14 16.56 149.004 16.848 148.964 17.208L151.7 17.208ZM156.094 15.468C156.35 15.164 156.622 14.936 156.91 14.784C157.206 14.632 157.558 14.556 157.966 14.556C158.07 14.556 158.17 14.56 158.266 14.568C158.362 14.576 158.45 14.588 158.53 14.604L158.53 16.164C158.346 16.164 158.158 16.168 157.966 16.176C157.782 16.176 157.606 16.192 157.438 16.224C157.27 16.256 157.106 16.308 156.946 16.38C156.794 16.444 156.658 16.54 156.538 16.668C156.354 16.876 156.238 17.1 156.19 17.34C156.15 17.58 156.13 17.852 156.13 18.156L156.13 21L154.438 21L154.438 14.676L155.998 14.676L156.094 15.468ZM161.594 15.9C161.474 15.9 161.358 15.908 161.246 15.924C161.142 15.94 161.046 15.968 160.958 16.008C160.87 16.04 160.798 16.096 160.742 16.176C160.686 16.248 160.662 16.344 160.67 16.464C160.678 16.6 160.73 16.708 160.826 16.788C160.93 16.868 161.074 16.932 161.258 16.98C161.434 17.028 161.63 17.076 161.846 17.124C162.062 17.164 162.274 17.208 162.482 17.256C162.69 17.304 162.894 17.36 163.094 17.424C163.294 17.488 163.47 17.568 163.622 17.664C163.83 17.792 164.002 17.972 164.138 18.204C164.274 18.436 164.338 18.72 164.33 19.056C164.33 19.384 164.274 19.668 164.162 19.908C164.058 20.14 163.914 20.34 163.73 20.508C163.498 20.716 163.206 20.868 162.854 20.964C162.502 21.052 162.146 21.096 161.786 21.096C161.37 21.096 160.986 21.052 160.634 20.964C160.29 20.876 159.974 20.72 159.686 20.496C159.478 20.328 159.302 20.124 159.158 19.884C159.022 19.636 158.942 19.34 158.918 18.996L160.622 18.996C160.67 19.268 160.802 19.456 161.018 19.56C161.242 19.664 161.506 19.716 161.81 19.716C161.898 19.716 161.99 19.712 162.086 19.704C162.19 19.688 162.282 19.664 162.362 19.632C162.45 19.592 162.522 19.536 162.578 19.464C162.642 19.384 162.674 19.3 162.674 19.212C162.682 19.004 162.61 18.856 162.458 18.768C162.314 18.68 162.158 18.62 161.99 18.588C161.822 18.548 161.642 18.508 161.45 18.468C161.258 18.428 161.066 18.388 160.874 18.348C160.69 18.308 160.506 18.26 160.322 18.204C160.138 18.14 159.97 18.056 159.818 17.952C159.586 17.808 159.39 17.616 159.23 17.376C159.078 17.136 159.014 16.82 159.038 16.428C159.054 16.084 159.138 15.792 159.29 15.552C159.45 15.304 159.646 15.108 159.878 14.964C160.118 14.812 160.386 14.704 160.682 14.64C160.986 14.576 161.294 14.544 161.606 14.544C161.95 14.544 162.274 14.58 162.578 14.652C162.882 14.724 163.146 14.84 163.37 15C163.602 15.16 163.786 15.368 163.922 15.624C164.066 15.88 164.146 16.192 164.162 16.56L162.53 16.56C162.498 16.296 162.394 16.12 162.218 16.032C162.05 15.944 161.842 15.9 161.594 15.9Z" fill="#A0B3CC"/>
<path d="M54.53 31.13L54.53 27.93L55.4 27.93L55.4 35L54.53 35L54.53 31.93L50.74 31.93L50.74 35L49.87 35L49.87 27.93L50.74 27.93L50.74 31.13L54.53 31.13ZM57.5956 32.68C57.6156 32.9133 57.6623 33.13 57.7356 33.33C57.8156 33.5233 57.9223 33.6933 58.0556 33.84C58.189 33.9867 58.3523 34.1033 58.5456 34.19C58.7456 34.27 58.9756 34.31 59.2356 34.31C59.3623 34.31 59.4923 34.3 59.6256 34.28C59.7656 34.2533 59.8956 34.2133 60.0156 34.16C60.1356 34.1 60.2423 34.0233 60.3356 33.93C60.429 33.8367 60.499 33.7233 60.5456 33.59L61.4156 33.59C61.3556 33.8433 61.2523 34.0633 61.1056 34.25C60.9656 34.4367 60.7956 34.59 60.5956 34.71C60.4023 34.83 60.1856 34.92 59.9456 34.98C59.7056 35.0333 59.4623 35.06 59.2156 35.06C58.7956 35.06 58.429 34.9933 58.1156 34.86C57.809 34.7267 57.5523 34.5433 57.3456 34.31C57.139 34.07 56.9856 33.7867 56.8856 33.46C56.7856 33.1267 56.7356 32.7633 56.7356 32.37C56.7356 31.9767 56.789 31.6167 56.8956 31.29C57.009 30.9567 57.169 30.67 57.3756 30.43C57.5823 30.19 57.8356 30.0033 58.1356 29.87C58.4356 29.7367 58.7923 29.67 59.2056 29.67C59.6256 29.67 59.989 29.7533 60.2956 29.92C60.6023 30.0867 60.849 30.3067 61.0356 30.58C61.2223 30.8467 61.3523 31.1367 61.4256 31.45C61.5056 31.7633 61.539 32.0533 61.5256 32.32C61.5256 32.38 61.5223 32.44 61.5156 32.5C61.5156 32.56 61.5123 32.62 61.5056 32.68L57.5956 32.68ZM60.6656 31.94C60.6523 31.4933 60.5123 31.13 60.2456 30.85C59.979 30.57 59.6223 30.43 59.1756 30.43C58.929 30.43 58.7123 30.47 58.5256 30.55C58.339 30.63 58.1823 30.74 58.0556 30.88C57.929 31.02 57.829 31.1833 57.7556 31.37C57.6823 31.55 57.6356 31.74 57.6156 31.94L60.6656 31.94ZM62.668 35L62.668 27.93L63.518 27.93L63.518 35L62.668 35ZM64.8555 35L64.8555 27.93L65.7055 27.93L65.7055 35L64.8555 35ZM69.363 29.67C69.783 29.67 70.1464 29.7367 70.453 29.87C70.7597 30.0033 71.0164 30.19 71.223 30.43C71.4364 30.67 71.593 30.9567 71.693 31.29C71.7997 31.6167 71.853 31.9767 71.853 32.37C71.853 32.7633 71.7997 33.1267 71.693 33.46C71.593 33.7867 71.4364 34.07 71.223 34.31C71.0164 34.5433 70.7564 34.7267 70.443 34.86C70.1297 34.9933 69.763 35.06 69.343 35.06C68.923 35.06 68.5564 34.9933 68.243 34.86C67.9364 34.7267 67.6764 34.5433 67.463 34.31C67.2564 34.07 67.0997 33.7867 66.993 33.46C66.893 33.1267 66.843 32.7633 66.843 32.37C66.843 31.9767 66.893 31.6167 66.993 31.29C67.0997 30.9567 67.2564 30.67 67.463 30.43C67.6764 30.19 67.943 30.0033 68.263 29.87C68.583 29.7367 68.9497 29.67 69.363 29.67ZM69.343 34.31C69.6297 34.31 69.8764 34.26 70.083 34.16C70.2964 34.06 70.4697 33.9233 70.603 33.75C70.743 33.57 70.843 33.3633 70.903 33.13C70.9697 32.8967 71.003 32.6433 71.003 32.37C71.003 32.1033 70.9697 31.8533 70.903 31.62C70.843 31.38 70.743 31.1733 70.603 31C70.4697 30.82 70.2964 30.68 70.083 30.58C69.8764 30.48 69.6297 30.43 69.343 30.43C69.0564 30.43 68.8097 30.48 68.603 30.58C68.3964 30.68 68.223 30.82 68.083 31C67.9497 31.1733 67.8497 31.38 67.783 31.62C67.723 31.8533 67.693 32.1033 67.693 32.37C67.693 32.6433 67.723 32.8967 67.783 33.13C67.8497 33.3633 67.9497 33.57 68.083 33.75C68.223 33.9233 68.3964 34.06 68.603 34.16C68.8097 34.26 69.0564 34.31 69.343 34.31ZM80.3856 35L79.5756 35L79.5356 34.21C79.3556 34.51 79.1056 34.7267 78.7856 34.86C78.4723 34.9933 78.1423 35.06 77.7956 35.06C77.3956 35.0533 77.049 34.9833 76.7556 34.85C76.4623 34.71 76.2223 34.52 76.0356 34.28C75.849 34.04 75.709 33.76 75.6156 33.44C75.529 33.1133 75.4856 32.76 75.4856 32.38C75.4856 32 75.5323 31.6467 75.6256 31.32C75.719 30.9867 75.8623 30.7 76.0556 30.46C76.249 30.2133 76.4923 30.02 76.7856 29.88C77.079 29.74 77.429 29.67 77.8356 29.67C78.1423 29.67 78.4523 29.7267 78.7656 29.84C79.079 29.9533 79.3356 30.1367 79.5356 30.39L79.5356 27.93L80.3856 27.93L80.3856 35ZM77.9056 30.43C77.619 30.43 77.3756 30.4833 77.1756 30.59C76.9756 30.69 76.8123 30.8267 76.6856 31C76.5656 31.1733 76.4756 31.38 76.4156 31.62C76.3623 31.8533 76.3356 32.11 76.3356 32.39C76.3356 32.67 76.3623 32.9233 76.4156 33.15C76.469 33.37 76.559 33.5667 76.6856 33.74C76.8123 33.9133 76.9756 34.0533 77.1756 34.16C77.3756 34.26 77.6223 34.31 77.9156 34.31C78.2556 34.31 78.5356 34.23 78.7556 34.07C78.9756 33.91 79.1523 33.71 79.2856 33.47C79.379 33.3033 79.4456 33.1233 79.4856 32.93C79.5256 32.73 79.5456 32.5333 79.5456 32.34C79.5456 32.1 79.5223 31.88 79.4756 31.68C79.4356 31.48 79.359 31.2933 79.2456 31.12C79.1123 30.9267 78.9356 30.7633 78.7156 30.63C78.4956 30.4967 78.2256 30.43 77.9056 30.43ZM82.3808 32.68C82.4008 32.9133 82.4474 33.13 82.5208 33.33C82.6008 33.5233 82.7074 33.6933 82.8408 33.84C82.9741 33.9867 83.1374 34.1033 83.3308 34.19C83.5308 34.27 83.7608 34.31 84.0208 34.31C84.1474 34.31 84.2774 34.3 84.4108 34.28C84.5508 34.2533 84.6808 34.2133 84.8008 34.16C84.9208 34.1 85.0274 34.0233 85.1208 33.93C85.2141 33.8367 85.2841 33.7233 85.3308 33.59L86.2008 33.59C86.1408 33.8433 86.0374 34.0633 85.8908 34.25C85.7508 34.4367 85.5808 34.59 85.3808 34.71C85.1874 34.83 84.9708 34.92 84.7308 34.98C84.4908 35.0333 84.2474 35.06 84.0008 35.06C83.5808 35.06 83.2141 34.9933 82.9008 34.86C82.5941 34.7267 82.3374 34.5433 82.1308 34.31C81.9241 34.07 81.7708 33.7867 81.6708 33.46C81.5708 33.1267 81.5208 32.7633 81.5208 32.37C81.5208 31.9767 81.5741 31.6167 81.6808 31.29C81.7941 30.9567 81.9541 30.67 82.1608 30.43C82.3674 30.19 82.6208 30.0033 82.9208 29.87C83.2208 29.7367 83.5774 29.67 83.9908 29.67C84.4108 29.67 84.7741 29.7533 85.0808 29.92C85.3874 30.0867 85.6341 30.3067 85.8208 30.58C86.0074 30.8467 86.1374 31.1367 86.2108 31.45C86.2908 31.7633 86.3241 32.0533 86.3108 32.32C86.3108 32.38 86.3074 32.44 86.3008 32.5C86.3008 32.56 86.2974 32.62 86.2908 32.68L82.3808 32.68ZM85.4508 31.94C85.4374 31.4933 85.2974 31.13 85.0308 30.85C84.7641 30.57 84.4074 30.43 83.9608 30.43C83.7141 30.43 83.4974 30.47 83.3108 30.55C83.1241 30.63 82.9674 30.74 82.8408 30.88C82.7141 31.02 82.6141 31.1833 82.5408 31.37C82.4674 31.55 82.4208 31.74 82.4008 31.94L85.4508 31.94ZM86.8532 29.73L87.8132 29.73L89.4732 34.18L91.1032 29.73L92.0732 29.73L90.0432 35L88.8832 35L86.8532 29.73ZM95.1345 29.67C95.5545 29.67 95.9179 29.7367 96.2245 29.87C96.5312 30.0033 96.7879 30.19 96.9945 30.43C97.2079 30.67 97.3645 30.9567 97.4645 31.29C97.5712 31.6167 97.6245 31.9767 97.6245 32.37C97.6245 32.7633 97.5712 33.1267 97.4645 33.46C97.3645 33.7867 97.2079 34.07 96.9945 34.31C96.7879 34.5433 96.5279 34.7267 96.2145 34.86C95.9012 34.9933 95.5345 35.06 95.1145 35.06C94.6945 35.06 94.3279 34.9933 94.0145 34.86C93.7079 34.7267 93.4479 34.5433 93.2345 34.31C93.0279 34.07 92.8712 33.7867 92.7645 33.46C92.6645 33.1267 92.6145 32.7633 92.6145 32.37C92.6145 31.9767 92.6645 31.6167 92.7645 31.29C92.8712 30.9567 93.0279 30.67 93.2345 30.43C93.4479 30.19 93.7145 30.0033 94.0345 29.87C94.3545 29.7367 94.7212 29.67 95.1345 29.67ZM95.1145 34.31C95.4012 34.31 95.6479 34.26 95.8545 34.16C96.0679 34.06 96.2412 33.9233 96.3745 33.75C96.5145 33.57 96.6145 33.3633 96.6745 33.13C96.7412 32.8967 96.7745 32.6433 96.7745 32.37C96.7745 32.1033 96.7412 31.8533 96.6745 31.62C96.6145 31.38 96.5145 31.1733 96.3745 31C96.2412 30.82 96.0679 30.68 95.8545 30.58C95.6479 30.48 95.4012 30.43 95.1145 30.43C94.8279 30.43 94.5812 30.48 94.3745 30.58C94.1679 30.68 93.9945 30.82 93.8545 31C93.7212 31.1733 93.6212 31.38 93.5545 31.62C93.4945 31.8533 93.4645 32.1033 93.4645 32.37C93.4645 32.6433 93.4945 32.8967 93.5545 33.13C93.6212 33.3633 93.7212 33.57 93.8545 33.75C93.9945 33.9233 94.1679 34.06 94.3745 34.16C94.5812 34.26 94.8279 34.31 95.1145 34.31ZM98.7618 36.9L98.7618 29.73L99.5718 29.73L99.6118 30.52C99.7918 30.2467 100.035 30.04 100.342 29.9C100.655 29.7533 100.992 29.6767 101.352 29.67C101.758 29.67 102.102 29.74 102.382 29.88C102.668 30.0133 102.905 30.2033 103.092 30.45C103.285 30.69 103.428 30.9767 103.522 31.31C103.615 31.6367 103.662 31.99 103.662 32.37C103.662 32.7567 103.615 33.1133 103.522 33.44C103.428 33.7667 103.285 34.05 103.092 34.29C102.898 34.53 102.655 34.72 102.362 34.86C102.068 34.9933 101.718 35.06 101.312 35.06C100.912 35.06 100.572 34.9967 100.292 34.87C100.012 34.7433 99.7851 34.5667 99.6118 34.34L99.6118 36.9L98.7618 36.9ZM101.242 34.31C101.528 34.31 101.768 34.26 101.962 34.16C102.162 34.0533 102.322 33.9133 102.442 33.74C102.568 33.56 102.658 33.3533 102.712 33.12C102.772 32.8867 102.805 32.6367 102.812 32.37C102.812 32.1033 102.782 31.8533 102.722 31.62C102.668 31.38 102.578 31.1733 102.452 31C102.325 30.8267 102.158 30.69 101.952 30.59C101.752 30.4833 101.508 30.43 101.222 30.43C100.882 30.43 100.588 30.5233 100.342 30.71C100.095 30.89 99.9085 31.12 99.7818 31.4C99.7085 31.5533 99.6585 31.7133 99.6318 31.88C99.6051 32.04 99.5918 32.2067 99.5918 32.38C99.5918 32.58 99.6051 32.7667 99.6318 32.94C99.6585 33.1067 99.7085 33.2667 99.7818 33.42C99.9085 33.6733 100.092 33.8867 100.332 34.06C100.578 34.2267 100.882 34.31 101.242 34.31ZM106.677 30.43C106.557 30.43 106.434 30.44 106.307 30.46C106.187 30.4733 106.067 30.5067 105.947 30.56C105.834 30.6067 105.734 30.68 105.647 30.78C105.567 30.8733 105.524 31 105.517 31.16C105.517 31.3867 105.6 31.5567 105.767 31.67C105.94 31.7833 106.164 31.8667 106.437 31.92C106.55 31.9467 106.674 31.9733 106.807 32C106.94 32.02 107.07 32.0433 107.197 32.07C107.33 32.09 107.454 32.1133 107.567 32.14C107.687 32.1667 107.787 32.1933 107.867 32.22C108.507 32.42 108.827 32.85 108.827 33.51C108.82 33.83 108.75 34.09 108.617 34.29C108.49 34.4833 108.327 34.6367 108.127 34.75C107.934 34.8633 107.71 34.9433 107.457 34.99C107.21 35.0367 106.964 35.06 106.717 35.06C106.477 35.06 106.234 35.0367 105.987 34.99C105.74 34.9433 105.514 34.8633 105.307 34.75C105.107 34.63 104.934 34.4767 104.787 34.29C104.647 34.0967 104.557 33.8567 104.517 33.57L105.377 33.57C105.43 33.73 105.514 33.8567 105.627 33.95C105.74 34.0433 105.86 34.1167 105.987 34.17C106.12 34.2233 106.244 34.26 106.357 34.28C106.477 34.3 106.61 34.31 106.757 34.31C106.864 34.31 106.987 34.3033 107.127 34.29C107.267 34.2767 107.4 34.2467 107.527 34.2C107.654 34.1467 107.76 34.07 107.847 33.97C107.934 33.87 107.977 33.73 107.977 33.55C107.977 33.35 107.91 33.2 107.777 33.1C107.65 33 107.474 32.9267 107.247 32.88C107.087 32.8467 106.92 32.8167 106.747 32.79C106.58 32.7567 106.41 32.7233 106.237 32.69C106.07 32.65 105.907 32.6067 105.747 32.56C105.587 32.5067 105.437 32.4367 105.297 32.35C105.11 32.2367 104.96 32.0833 104.847 31.89C104.734 31.6967 104.677 31.46 104.677 31.18C104.69 30.8867 104.757 30.6467 104.877 30.46C104.997 30.2667 105.15 30.11 105.337 29.99C105.537 29.87 105.75 29.7867 105.977 29.74C106.204 29.6933 106.444 29.67 106.697 29.67C107.237 29.67 107.667 29.7867 107.987 30.02C108.18 30.1533 108.33 30.3133 108.437 30.5C108.544 30.6867 108.61 30.8833 108.637 31.09L107.847 31.09C107.8 30.8967 107.674 30.74 107.467 30.62C107.26 30.5 106.997 30.4367 106.677 30.43ZM116.05 34.33C115.937 34.4833 115.807 34.6067 115.66 34.7C115.513 34.7933 115.36 34.8667 115.2 34.92C115.047 34.9733 114.89 35.01 114.73 35.03C114.577 35.05 114.423 35.06 114.27 35.06C114.023 35.06 113.79 35.03 113.57 34.97C113.35 34.91 113.15 34.8133 112.97 34.68C112.797 34.5467 112.657 34.38 112.55 34.18C112.45 33.98 112.4 33.7533 112.4 33.5C112.4 33.2 112.453 32.95 112.56 32.75C112.673 32.5433 112.823 32.3767 113.01 32.25C113.197 32.1233 113.41 32.0367 113.65 31.99C113.897 31.9367 114.157 31.91 114.43 31.91L115.98 31.91C115.98 31.4633 115.883 31.11 115.69 30.85C115.497 30.5833 115.17 30.4433 114.71 30.43C114.43 30.43 114.183 30.4767 113.97 30.57C113.757 30.6633 113.61 30.8167 113.53 31.03L112.62 31.03C112.667 30.79 112.76 30.5867 112.9 30.42C113.04 30.2467 113.207 30.1067 113.4 30C113.593 29.8867 113.803 29.8033 114.03 29.75C114.257 29.6967 114.483 29.67 114.71 29.67C115.103 29.67 115.433 29.7367 115.7 29.87C115.973 29.9967 116.193 30.1667 116.36 30.38C116.527 30.5867 116.643 30.84 116.71 31.14C116.777 31.44 116.81 31.7767 116.81 32.15L116.81 35L116.1 35L116.05 34.33ZM115.05 32.62C114.89 32.62 114.703 32.6233 114.49 32.63C114.283 32.63 114.083 32.65 113.89 32.69C113.697 32.73 113.54 32.8133 113.42 32.94C113.307 33.0667 113.25 33.2333 113.25 33.44C113.25 33.5933 113.28 33.7233 113.34 33.83C113.4 33.9367 113.48 34.0267 113.58 34.1C113.687 34.1733 113.807 34.2267 113.94 34.26C114.073 34.2933 114.21 34.31 114.35 34.31C114.85 34.31 115.243 34.19 115.53 33.95C115.823 33.7033 115.973 33.3467 115.98 32.88L115.98 32.62L115.05 32.62ZM118.127 35L118.127 29.73L118.947 29.73L118.987 30.53C119.074 30.3833 119.18 30.2567 119.307 30.15C119.44 30.0433 119.584 29.9533 119.737 29.88C119.89 29.8067 120.05 29.7533 120.217 29.72C120.39 29.6867 120.557 29.67 120.717 29.67C121.097 29.67 121.417 29.7333 121.677 29.86C121.937 29.98 122.144 30.15 122.297 30.37C122.45 30.5833 122.56 30.84 122.627 31.14C122.694 31.4333 122.727 31.75 122.727 32.09L122.727 35L121.877 35L121.877 32.32C121.877 32.0733 121.86 31.8367 121.827 31.61C121.8 31.3833 121.74 31.1833 121.647 31.01C121.56 30.83 121.434 30.6867 121.267 30.58C121.1 30.4733 120.877 30.42 120.597 30.42C120.324 30.4267 120.08 30.4933 119.867 30.62C119.66 30.7467 119.494 30.8967 119.367 31.07C119.214 31.29 119.11 31.5333 119.057 31.8C119.004 32.06 118.977 32.3233 118.977 32.59L118.977 35L118.127 35ZM128.735 35L127.925 35L127.885 34.21C127.705 34.51 127.455 34.7267 127.135 34.86C126.822 34.9933 126.492 35.06 126.145 35.06C125.745 35.0533 125.399 34.9833 125.105 34.85C124.812 34.71 124.572 34.52 124.385 34.28C124.199 34.04 124.059 33.76 123.965 33.44C123.879 33.1133 123.835 32.76 123.835 32.38C123.835 32 123.882 31.6467 123.975 31.32C124.069 30.9867 124.212 30.7 124.405 30.46C124.599 30.2133 124.842 30.02 125.135 29.88C125.429 29.74 125.779 29.67 126.185 29.67C126.492 29.67 126.802 29.7267 127.115 29.84C127.429 29.9533 127.685 30.1367 127.885 30.39L127.885 27.93L128.735 27.93L128.735 35ZM126.255 30.43C125.969 30.43 125.725 30.4833 125.525 30.59C125.325 30.69 125.162 30.8267 125.035 31C124.915 31.1733 124.825 31.38 124.765 31.62C124.712 31.8533 124.685 32.11 124.685 32.39C124.685 32.67 124.712 32.9233 124.765 33.15C124.819 33.37 124.909 33.5667 125.035 33.74C125.162 33.9133 125.325 34.0533 125.525 34.16C125.725 34.26 125.972 34.31 126.265 34.31C126.605 34.31 126.885 34.23 127.105 34.07C127.325 33.91 127.502 33.71 127.635 33.47C127.729 33.3033 127.795 33.1233 127.835 32.93C127.875 32.73 127.895 32.5333 127.895 32.34C127.895 32.1 127.872 31.88 127.825 31.68C127.785 31.48 127.709 31.2933 127.595 31.12C127.462 30.9267 127.285 30.7633 127.065 30.63C126.845 30.4967 126.575 30.43 126.255 30.43ZM133.276 35L133.276 30.48L132.416 30.48L132.416 29.73L133.276 29.73L133.276 29.17C133.276 28.5833 133.402 28.1533 133.656 27.88C133.909 27.6067 134.336 27.47 134.936 27.47L135.536 27.47L135.536 28.22L135.026 28.22C134.666 28.22 134.426 28.31 134.306 28.49C134.186 28.67 134.126 28.93 134.126 29.27L134.126 29.73L135.536 29.73L135.536 30.48L134.126 30.48L134.126 35L133.276 35ZM136.428 35L136.428 29.73L137.248 29.73L137.288 30.55C137.481 30.2433 137.728 30.02 138.028 29.88C138.328 29.74 138.668 29.67 139.048 29.67L139.318 29.67L139.318 30.47L139.008 30.47C138.694 30.47 138.428 30.5233 138.208 30.63C137.988 30.73 137.808 30.87 137.668 31.05C137.534 31.2233 137.434 31.43 137.368 31.67C137.308 31.91 137.278 32.1633 137.278 32.43L137.278 35L136.428 35ZM142.381 29.67C142.801 29.67 143.164 29.7367 143.471 29.87C143.777 30.0033 144.034 30.19 144.241 30.43C144.454 30.67 144.611 30.9567 144.711 31.29C144.817 31.6167 144.871 31.9767 144.871 32.37C144.871 32.7633 144.817 33.1267 144.711 33.46C144.611 33.7867 144.454 34.07 144.241 34.31C144.034 34.5433 143.774 34.7267 143.461 34.86C143.147 34.9933 142.781 35.06 142.361 35.06C141.941 35.06 141.574 34.9933 141.261 34.86C140.954 34.7267 140.694 34.5433 140.481 34.31C140.274 34.07 140.117 33.7867 140.011 33.46C139.911 33.1267 139.861 32.7633 139.861 32.37C139.861 31.9767 139.911 31.6167 140.011 31.29C140.117 30.9567 140.274 30.67 140.481 30.43C140.694 30.19 140.961 30.0033 141.281 29.87C141.601 29.7367 141.967 29.67 142.381 29.67ZM142.361 34.31C142.647 34.31 142.894 34.26 143.101 34.16C143.314 34.06 143.487 33.9233 143.621 33.75C143.761 33.57 143.861 33.3633 143.921 33.13C143.987 32.8967 144.021 32.6433 144.021 32.37C144.021 32.1033 143.987 31.8533 143.921 31.62C143.861 31.38 143.761 31.1733 143.621 31C143.487 30.82 143.314 30.68 143.101 30.58C142.894 30.48 142.647 30.43 142.361 30.43C142.074 30.43 141.827 30.48 141.621 30.58C141.414 30.68 141.241 30.82 141.101 31C140.967 31.1733 140.867 31.38 140.801 31.62C140.741 31.8533 140.711 32.1033 140.711 32.37C140.711 32.6433 140.741 32.8967 140.801 33.13C140.867 33.3633 140.967 33.57 141.101 33.75C141.241 33.9233 141.414 34.06 141.621 34.16C141.827 34.26 142.074 34.31 142.361 34.31ZM146.008 35L146.008 29.73L146.828 29.73L146.868 30.53C146.955 30.3833 147.061 30.2567 147.188 30.15C147.321 30.0433 147.465 29.9533 147.618 29.88C147.771 29.8067 147.931 29.7533 148.098 29.72C148.271 29.6867 148.438 29.67 148.598 29.67C148.978 29.67 149.298 29.7333 149.558 29.86C149.818 29.98 150.025 30.15 150.178 30.37C150.331 30.5833 150.441 30.84 150.508 31.14C150.575 31.4333 150.608 31.75 150.608 32.09L150.608 35L149.758 35L149.758 32.32C149.758 32.0733 149.741 31.8367 149.708 31.61C149.681 31.3833 149.621 31.1833 149.528 31.01C149.441 30.83 149.315 30.6867 149.148 30.58C148.981 30.4733 148.758 30.42 148.478 30.42C148.205 30.4267 147.961 30.4933 147.748 30.62C147.541 30.7467 147.375 30.8967 147.248 31.07C147.095 31.29 146.991 31.5333 146.938 31.8C146.885 32.06 146.858 32.3233 146.858 32.59L146.858 35L146.008 35ZM153.246 29.73L154.866 29.73L154.866 30.48L153.246 30.48L153.246 33.22C153.246 33.3733 153.253 33.5167 153.266 33.65C153.286 33.7767 153.319 33.89 153.366 33.99C153.419 34.0833 153.493 34.16 153.586 34.22C153.686 34.2733 153.819 34.3033 153.986 34.31C154.139 34.31 154.273 34.2833 154.386 34.23C154.506 34.1767 154.606 34.1133 154.686 34.04L155.056 34.66C154.883 34.8067 154.703 34.91 154.516 34.97C154.329 35.03 154.123 35.06 153.896 35.06C153.609 35.06 153.369 35.02 153.176 34.94C152.983 34.8533 152.819 34.73 152.686 34.57C152.573 34.4167 152.496 34.2367 152.456 34.03C152.416 33.8233 152.396 33.59 152.396 33.33L152.396 30.48L151.536 30.48L151.536 29.73L152.396 29.73L152.396 28.15L153.246 28.15L153.246 29.73ZM156.541 32.68C156.561 32.9133 156.608 33.13 156.681 33.33C156.761 33.5233 156.868 33.6933 157.001 33.84C157.134 33.9867 157.298 34.1033 157.491 34.19C157.691 34.27 157.921 34.31 158.181 34.31C158.308 34.31 158.438 34.3 158.571 34.28C158.711 34.2533 158.841 34.2133 158.961 34.16C159.081 34.1 159.188 34.0233 159.281 33.93C159.374 33.8367 159.444 33.7233 159.491 33.59L160.361 33.59C160.301 33.8433 160.198 34.0633 160.051 34.25C159.911 34.4367 159.741 34.59 159.541 34.71C159.348 34.83 159.131 34.92 158.891 34.98C158.651 35.0333 158.408 35.06 158.161 35.06C157.741 35.06 157.374 34.9933 157.061 34.86C156.754 34.7267 156.498 34.5433 156.291 34.31C156.084 34.07 155.931 33.7867 155.831 33.46C155.731 33.1267 155.681 32.7633 155.681 32.37C155.681 31.9767 155.734 31.6167 155.841 31.29C155.954 30.9567 156.114 30.67 156.321 30.43C156.528 30.19 156.781 30.0033 157.081 29.87C157.381 29.7367 157.738 29.67 158.151 29.67C158.571 29.67 158.934 29.7533 159.241 29.92C159.548 30.0867 159.794 30.3067 159.981 30.58C160.168 30.8467 160.298 31.1367 160.371 31.45C160.451 31.7633 160.484 32.0533 160.471 32.32C160.471 32.38 160.468 32.44 160.461 32.5C160.461 32.56 160.458 32.62 160.451 32.68L156.541 32.68ZM159.611 31.94C159.598 31.4933 159.458 31.13 159.191 30.85C158.924 30.57 158.568 30.43 158.121 30.43C157.874 30.43 157.658 30.47 157.471 30.55C157.284 30.63 157.128 30.74 157.001 30.88C156.874 31.02 156.774 31.1833 156.701 31.37C156.628 31.55 156.581 31.74 156.561 31.94L159.611 31.94ZM161.613 35L161.613 29.73L162.433 29.73L162.473 30.53C162.56 30.3833 162.667 30.2567 162.793 30.15C162.927 30.0433 163.07 29.9533 163.223 29.88C163.377 29.8067 163.537 29.7533 163.703 29.72C163.877 29.6867 164.043 29.67 164.203 29.67C164.583 29.67 164.903 29.7333 165.163 29.86C165.423 29.98 165.63 30.15 165.783 30.37C165.937 30.5833 166.047 30.84 166.113 31.14C166.18 31.4333 166.213 31.75 166.213 32.09L166.213 35L165.363 35L165.363 32.32C165.363 32.0733 165.347 31.8367 165.313 31.61C165.287 31.3833 165.227 31.1833 165.133 31.01C165.047 30.83 164.92 30.6867 164.753 30.58C164.587 30.4733 164.363 30.42 164.083 30.42C163.81 30.4267 163.567 30.4933 163.353 30.62C163.147 30.7467 162.98 30.8967 162.853 31.07C162.7 31.29 162.597 31.5333 162.543 31.8C162.49 32.06 162.463 32.3233 162.463 32.59L162.463 35L161.613 35ZM172.222 35L171.412 35L171.372 34.21C171.192 34.51 170.942 34.7267 170.622 34.86C170.308 34.9933 169.978 35.06 169.632 35.06C169.232 35.0533 168.885 34.9833 168.592 34.85C168.298 34.71 168.058 34.52 167.872 34.28C167.685 34.04 167.545 33.76 167.452 33.44C167.365 33.1133 167.322 32.76 167.322 32.38C167.322 32 167.368 31.6467 167.462 31.32C167.555 30.9867 167.698 30.7 167.892 30.46C168.085 30.2133 168.328 30.02 168.622 29.88C168.915 29.74 169.265 29.67 169.672 29.67C169.978 29.67 170.288 29.7267 170.602 29.84C170.915 29.9533 171.172 30.1367 171.372 30.39L171.372 27.93L172.222 27.93L172.222 35ZM169.742 30.43C169.455 30.43 169.212 30.4833 169.012 30.59C168.812 30.69 168.648 30.8267 168.522 31C168.402 31.1733 168.312 31.38 168.252 31.62C168.198 31.8533 168.172 32.11 168.172 32.39C168.172 32.67 168.198 32.9233 168.252 33.15C168.305 33.37 168.395 33.5667 168.522 33.74C168.648 33.9133 168.812 34.0533 169.012 34.16C169.212 34.26 169.458 34.31 169.752 34.31C170.092 34.31 170.372 34.23 170.592 34.07C170.812 33.91 170.988 33.71 171.122 33.47C171.215 33.3033 171.282 33.1233 171.322 32.93C171.362 32.73 171.382 32.5333 171.382 32.34C171.382 32.1 171.358 31.88 171.312 31.68C171.272 31.48 171.195 31.2933 171.082 31.12C170.948 30.9267 170.772 30.7633 170.552 30.63C170.332 30.4967 170.062 30.43 169.742 30.43ZM174.157 33.88C174.33 33.88 174.473 33.9367 174.587 34.05C174.7 34.1633 174.757 34.3067 174.757 34.48C174.757 34.6533 174.7 34.7967 174.587 34.91C174.473 35.0233 174.33 35.08 174.157 35.08C173.983 35.08 173.84 35.0233 173.727 34.91C173.613 34.7967 173.557 34.6533 173.557 34.48C173.557 34.3067 173.613 34.1633 173.727 34.05C173.84 33.9367 173.983 33.88 174.157 33.88ZM176.696 33.88C176.869 33.88 177.012 33.9367 177.126 34.05C177.239 34.1633 177.296 34.3067 177.296 34.48C177.296 34.6533 177.239 34.7967 177.126 34.91C177.012 35.0233 176.869 35.08 176.696 35.08C176.522 35.08 176.379 35.0233 176.266 34.91C176.152 34.7967 176.096 34.6533 176.096 34.48C176.096 34.3067 176.152 34.1633 176.266 34.05C176.379 33.9367 176.522 33.88 176.696 33.88ZM179.235 33.88C179.408 33.88 179.552 33.9367 179.665 34.05C179.778 34.1633 179.835 34.3067 179.835 34.48C179.835 34.6533 179.778 34.7967 179.665 34.91C179.552 35.0233 179.408 35.08 179.235 35.08C179.062 35.08 178.918 35.0233 178.805 34.91C178.692 34.7967 178.635 34.6533 178.635 34.48C178.635 34.3067 178.692 34.1633 178.805 34.05C178.918 33.9367 179.062 33.88 179.235 33.88Z" fill="#A0B3CC"/>
</g>
<defs>
<clipPath id="clip0_106_57">
<rect width="190" height="48" rx="8" fill="white"/>
</clipPath>
</defs>
</svg>
